<?xml version="1.0" encoding="utf-8"?>
<!-- Generator: Adobe Illustrator 19.0.0, SVG Export Plug-In . SVG Version: 6.00 Build 0)  -->
<svg version="1.1" id="Layer_1" xmlns="http://www.w3.org/2000/svg" xmlns:xlink="http://www.w3.org/1999/xlink" x="0px" y="0px"
	 width="500px" height="164px" viewBox="-55 315 500 164" style="enable-background:new -55 315 500 164;" xml:space="preserve">
<style type="text/css">
	.st0{fill:#010101;}
	.st1{fill:#FFFFFF;}
</style>
<path id="XMLID_99_" class="st0" d="M108.6,456.5c0,12.2-9.9,22.1-22.2,22.1H-32.8c-12.2,0-22.2-9.9-22.2-22.1V337.1
	c0-12.2,9.9-22.1,22.2-22.1H86.4c12.2,0,22.2,9.9,22.2,22.1V456.5z"/>
<g>
	<path class="st1" d="M27.5,341.1L62,354.5L96.4,368l1.3,0.5v1.4v26.9v26.9v1.4l-1.3,0.5L62,439l-34.4,13.4l-0.8,0.3l-0.8-0.3
		L-8.4,439l-34.4-13.4l-1.3-0.5v-1.4v-26.9v-26.9v-1.4l1.3-0.5l34.4-13.4L26,341.1l0.8-0.3L27.5,341.1L27.5,341.1z M60.5,358.4
		l-33.7-13.1l-33.7,13.1L-40,371.3v25.4v25.4l33.1,12.9l33.7,13.1l33.7-13.1l33.1-12.9v-25.4v-25.4L60.5,358.4L60.5,358.4z"/>
	<g>
		<path class="st1" d="M79.8,375.9h3.4v41.8h-3.4l-5.9-25.4h-0.1v25.4h-3.3v-41.8h3.3l0,0h0.1l5.9,25.4V375.9L79.8,375.9z
			 M57.1,414.3v-34.8h-4.2v34.8L57.1,414.3L57.1,414.3z M60.4,379.7v34.6l-2.6,3.5l0,0h-5.7l0,0l-2.6-3.5v-34.6l2.6-3.8l0,0h5.7l0,0
			L60.4,379.7L60.4,379.7z M39.6,384.8h-3.3v-5.4l0,0l0,0l0,0h-3.8v14.1l0,0h3.3l3.3,3.2v17.5l-3.3,3.4h-3.3l-3.4-3.4v-8h3.5v7.9
			h3.2v-17.1h-3.3l-3.3-3.5v-14.7l3.3-2.9h3.8l3.3,3.5V384.8L39.6,384.8z M15.4,393.6v-14.1h-3.8v14.1H15.4L15.4,393.6z M8.2,375.9
			h7.4l3.1,3.3V393l-2.3,2.2l2.3,2.2v20.3h-3.3v-20.9h-3.8v20.9H8.2L8.2,375.9L8.2,375.9z M-6.9,403H-6l-0.8-9.5h-0.7l-0.8,9.5h0.9
			H-6.9L-6.9,403z M-5.5,375.8l4.2,42h-3.3l-1.1-11.5h-2.9l-1.1,11.5H-13l4.2-42l0,0H-5.5L-5.5,375.8z M-20.9,417.8h-8.7v-42h3.3
			v38.6h5.4L-20.9,417.8L-20.9,417.8z"/>
		<g>
			<path class="st1" d="M40.5,433.6l3-0.8l-0.2-0.6l-2.3,0.6l-0.3-1.1l2-0.5l-0.2-0.6l-2,0.5l-0.3-1l2.3-0.6l-0.2-0.6l-3,0.7
				L40.5,433.6L40.5,433.6z M36.7,434.2c0.3,0,0.5-0.1,0.7-0.2c0.2-0.1,0.4-0.2,0.5-0.3c0.1-0.1,0.3-0.3,0.4-0.5l-0.5-0.4
				c-0.1,0.1-0.2,0.2-0.3,0.3c-0.1,0.1-0.2,0.2-0.4,0.2c-0.1,0.1-0.3,0.1-0.4,0.1c-0.2,0-0.4,0-0.6,0c-0.2,0-0.3-0.1-0.5-0.3
				c-0.1-0.1-0.3-0.3-0.3-0.4c-0.1-0.2-0.1-0.4-0.2-0.6c0-0.2,0-0.4,0-0.6c0-0.2,0.1-0.4,0.2-0.5c0.1-0.2,0.2-0.3,0.4-0.4
				c0.2-0.1,0.3-0.2,0.5-0.2c0.2,0,0.3,0,0.4,0c0.1,0,0.3,0.1,0.4,0.1c0.1,0.1,0.3,0.1,0.4,0.2l0.4-0.6c-0.1-0.1-0.3-0.2-0.5-0.3
				c-0.2-0.1-0.3-0.1-0.6-0.2c-0.2,0-0.4,0-0.7,0c-0.3,0-0.5,0.1-0.7,0.2c-0.2,0.1-0.4,0.2-0.5,0.4c-0.2,0.2-0.3,0.3-0.4,0.5
				c-0.1,0.2-0.2,0.4-0.2,0.6c0,0.2,0,0.4,0,0.7c0,0.2,0.1,0.5,0.2,0.7c0.1,0.2,0.2,0.4,0.4,0.5c0.1,0.2,0.3,0.3,0.5,0.4
				c0.2,0.1,0.4,0.2,0.6,0.2C36.3,434.3,36.5,434.3,36.7,434.2L36.7,434.2z M31.7,434.7l0.7-0.1l-0.4-4.1l-0.7,0.1L31.7,434.7
				L31.7,434.7z M27.3,434.9l0.6,0l1.6-4.2l-0.8,0l-1.1,3.2l-1.4-3.1l-0.8,0L27.3,434.9L27.3,434.9z M21.3,432.6l0.1-1.4l1.1,0.1
				c0.2,0,0.3,0,0.5,0.1c0.1,0.1,0.2,0.1,0.3,0.2c0.1,0.1,0.1,0.2,0.1,0.4c0,0.1-0.1,0.3-0.1,0.4c-0.1,0.1-0.2,0.2-0.3,0.2
				c-0.1,0-0.3,0.1-0.5,0.1L21.3,432.6L21.3,432.6z M20.4,434.6l0.7,0l0.1-1.4l0.9,0.1l0.9,1.5l0.9,0.1l-1-1.6
				c0.2,0,0.4-0.1,0.5-0.2c0.2-0.1,0.3-0.2,0.4-0.4c0.1-0.2,0.1-0.4,0.2-0.6c0-0.3,0-0.5-0.1-0.7c-0.1-0.2-0.3-0.4-0.5-0.5
				c-0.2-0.1-0.5-0.2-0.8-0.2l-1.8-0.1L20.4,434.6L20.4,434.6z M15.2,433.9l3.1,0.5l0.1-0.6l-2.3-0.4l0.2-1.1l2,0.4l0.1-0.6l-2-0.4
				l0.2-1.1l2.3,0.4l0.1-0.6l-3-0.5L15.2,433.9L15.2,433.9z M11.5,433.3c0.2,0.1,0.4,0.1,0.6,0.1c0.2,0,0.4,0,0.5-0.1
				c0.2-0.1,0.3-0.2,0.4-0.3c0.1-0.1,0.2-0.3,0.2-0.5c0-0.2,0.1-0.3,0-0.5s-0.1-0.3-0.2-0.4c-0.1-0.1-0.2-0.2-0.3-0.3
				c-0.1-0.1-0.3-0.2-0.5-0.3c-0.2-0.1-0.3-0.2-0.4-0.3c-0.1-0.1-0.2-0.1-0.3-0.2c-0.1-0.1-0.1-0.1-0.1-0.2c0-0.1,0-0.1,0-0.2
				c0-0.1,0.1-0.2,0.1-0.2c0.1-0.1,0.2-0.1,0.3-0.1c0.1,0,0.2,0,0.4,0c0.2,0,0.4,0.1,0.5,0.2c0.2,0.1,0.3,0.3,0.5,0.5l0.5-0.4
				c-0.2-0.2-0.3-0.4-0.6-0.6c-0.2-0.1-0.5-0.3-0.8-0.3c-0.2-0.1-0.4-0.1-0.6-0.1c-0.2,0-0.3,0-0.5,0.1c-0.1,0.1-0.3,0.2-0.4,0.3
				c-0.1,0.1-0.2,0.3-0.2,0.4c0,0.2-0.1,0.4,0,0.5c0,0.1,0.1,0.3,0.2,0.4c0.1,0.1,0.2,0.2,0.4,0.3c0.1,0.1,0.3,0.2,0.5,0.3
				c0.2,0.1,0.3,0.2,0.4,0.3c0.1,0.1,0.2,0.1,0.2,0.2c0.1,0.1,0.1,0.1,0.1,0.2c0,0.1,0,0.1,0,0.2c0,0.1-0.1,0.2-0.2,0.2
				c-0.1,0.1-0.2,0.1-0.3,0.1c-0.1,0-0.2,0-0.4,0c-0.2,0-0.3-0.1-0.4-0.2c-0.1-0.1-0.3-0.2-0.4-0.3c-0.1-0.1-0.2-0.2-0.3-0.4
				l-0.6,0.4c0.2,0.3,0.4,0.5,0.7,0.7C10.9,433,11.2,433.2,11.5,433.3L11.5,433.3z"/>
			<g>
				<g>
					<path class="st1" d="M19.5,361.4c-0.2-1.2,0.6-2.3,1.8-2.5c0.8-0.1,1.3,0.1,1.7,0.4l-0.4,0.6c-0.4-0.3-0.8-0.4-1.3-0.3
						c-0.8,0.1-1.3,0.9-1.2,1.7c0.1,0.8,0.8,1.4,1.6,1.3c0.5-0.1,0.8-0.3,1.1-0.7l0.5,0.4c-0.4,0.5-0.8,0.9-1.6,1
						C20.8,363.4,19.7,362.6,19.5,361.4z"/>
				</g>
				<g>
					<path class="st1" d="M31.4,358.8l1.9,0.2c1,0.1,1.5,0.7,1.5,1.5c-0.1,0.7-0.5,1.1-1.1,1.2l1,1.7l-0.9-0.1l-0.9-1.6l-0.9-0.1
						l-0.1,1.5l-0.7-0.1L31.4,358.8z M33.1,361c0.5,0,0.9-0.2,0.9-0.7c0-0.5-0.3-0.7-0.8-0.8l-1.1-0.1l-0.1,1.4L33.1,361z"/>
				</g>
				<g>
					<path class="st1" d="M26.8,358.7l0.7,0l2,4.3l-0.8,0l-0.5-1l-2,0l-0.4,1l-0.8,0L26.8,358.7z M27.9,361.2l-0.8-1.7l-0.7,1.7
						L27.9,361.2z"/>
				</g>
			</g>
		</g>
	</g>
</g>
</svg>
