<svg enable-background="new -443 253.076 71.059 55.924" height="55.924" viewBox="-443 253.076 71.059 55.924" width="71.059" xmlns="http://www.w3.org/2000/svg"><path d="m-407.089 253.076 17.24 6.729 17.24 6.728.668.26v.717 13.455 13.455.717l-.668.26-17.24 6.729-17.24 6.726-.382.149-.382-.149-17.239-6.726-17.239-6.73-.669-.259v-.717-13.455-13.455-.717l.669-.26 17.239-6.728 17.239-6.729.382-.148zm16.477 8.682-16.859-6.578-16.856 6.578-16.571 6.467v12.74 12.738l16.571 6.467 16.856 6.578 16.858-6.578 16.57-6.467v-12.738-12.74z"/><path d="m-380.918 270.527h1.687v20.932h-1.687l-2.974-12.725h-.057v12.725h-1.659v-20.932h1.659.057l2.974 12.725zm-11.376 19.188v-17.444h-2.088v17.443h2.088zm1.659-17.299v17.299l-1.287 1.773h-2.831l-1.287-1.773v-17.299l1.287-1.918h2.831zm-10.403 2.572h-1.659v-2.717h-1.915v7.063h1.658l1.658 1.601v8.75l-1.658 1.717h-1.658l-1.689-1.717v-4.002h1.744v3.975h1.603v-8.551h-1.658l-1.659-1.773v-7.377l1.659-1.459h1.915l1.659 1.774zm-12.149 4.375v-7.064h-1.916v7.064zm-3.575-8.836h3.689l1.544 1.658v6.893l-1.144 1.115 1.144 1.113v10.152h-1.658v-10.466h-1.916v10.467h-1.659zm-7.572 13.555h.458l-.4-4.748h-.344l-.4 4.748h.457zm.715-13.641 2.088 21.018h-1.63l-.544-5.746h-1.458l-.572 5.746h-1.63l2.088-21.018zm-7.744 21.047h-4.346v-21.017h1.658v19.301h2.688z"/><path d="m-400.589 299.381 1.508-.377-.079-.316-1.153.287-.137-.541 1.012-.252-.08-.316-1.009.252-.131-.523 1.14-.285-.08-.316-1.493.373zm-1.892.341c.128-.018.238-.047.333-.092.095-.043.179-.098.251-.162.072-.066.139-.141.199-.227l-.267-.201c-.05.063-.102.117-.155.166-.052.047-.11.088-.176.119-.063.031-.138.053-.221.064-.1.014-.193.006-.281-.02-.087-.025-.166-.068-.237-.127-.069-.059-.127-.131-.174-.213-.044-.084-.074-.176-.089-.277-.014-.104-.012-.201.011-.293.02-.094.057-.178.107-.252.052-.076.116-.139.193-.188.078-.049.166-.08.264-.094.078-.012.151-.012.222.002.069.01.137.031.2.063.066.029.129.066.19.109l.195-.299c-.075-.055-.152-.102-.236-.137-.083-.039-.175-.065-.276-.076-.101-.014-.213-.012-.338.006-.126.018-.24.053-.342.104-.104.049-.194.113-.272.191s-.142.166-.191.262c-.051.098-.083.201-.103.313-.018.111-.019.225-.004.344.018.117.051.23.1.332s.11.191.186.271c.074.078.159.145.255.197.096.053.198.088.31.109.111.022.224.024.346.006zm-2.516.227.363-.039-.218-2.066-.362.039zm-2.227.1.32-.012.79-2.119-.395.014-.567 1.617-.681-1.574-.403.014zm-3.001-1.16.048-.695.529.037c.091.006.167.025.229.057.062.029.108.072.139.125.03.055.043.117.038.191-.005.072-.026.135-.065.184-.038.051-.09.088-.155.111-.066.023-.143.033-.229.027zm-.437 1.019.363.025.051-.723.449.031.465.758.43.031-.505-.824c.1-.02.188-.055.267-.106.077-.049.14-.115.188-.195.048-.082.075-.178.084-.293.01-.133-.014-.25-.067-.354s-.136-.186-.246-.248c-.11-.061-.247-.1-.41-.109l-.923-.066zm-2.629-.357 1.531.27.057-.32-1.172-.207.097-.551 1.025.182.058-.322-1.026-.18.094-.531 1.157.203.057-.32-1.517-.27zm-1.817-.325c.105.027.205.039.301.037.095-.004.181-.023.258-.059.077-.033.144-.084.198-.148s.094-.145.12-.238c.022-.084.028-.16.018-.23s-.036-.137-.077-.197c-.043-.061-.099-.119-.171-.174-.071-.055-.156-.109-.256-.164-.089-.049-.162-.092-.219-.129-.056-.039-.099-.074-.127-.107s-.046-.066-.052-.1c-.007-.033-.004-.068.007-.106.013-.047.037-.084.071-.115.036-.029.081-.049.135-.057.055-.008.117-.004.186.016.092.024.179.067.259.125.082.059.158.135.23.227l.261-.215c-.08-.109-.172-.201-.28-.277-.107-.074-.234-.131-.38-.17-.1-.027-.195-.039-.287-.031-.09.004-.173.025-.249.061-.074.035-.138.084-.191.147-.052.06-.09.135-.113.223-.025.092-.031.176-.019.25.011.072.04.141.085.199.045.061.104.117.179.17.074.053.162.107.263.16.086.047.156.09.209.127.055.037.095.072.121.105s.042.064.047.098c.005.031.002.066-.008.102-.014.053-.041.094-.08.125s-.088.049-.146.055c-.059.008-.125.002-.197-.018-.083-.021-.158-.053-.225-.094-.066-.039-.128-.088-.183-.145-.056-.055-.108-.119-.157-.193l-.279.195c.092.141.202.256.329.348.124.09.264.156.419.197z"/><path d="m-411.11 263.258c-.095-.6.278-1.16.917-1.26.388-.061.644.037.876.199l-.195.313c-.192-.131-.39-.209-.631-.172-.404.064-.643.441-.578.859.064.414.408.705.813.643.259-.041.408-.174.563-.369l.275.203c-.184.264-.401.445-.797.508-.615.095-1.148-.313-1.243-.924z"/><path d="m-405.134 261.93.949.08c.497.043.765.336.729.744-.029.35-.257.543-.561.601l.506.854-.439-.037-.467-.787-.462-.039-.063.74-.374-.031zm.83 1.132c.268.022.45-.103.468-.326.02-.227-.134-.365-.408-.389l-.544-.047-.063.715z"/><path d="m-407.482 261.887.348-.006.978 2.131-.396.008-.226-.512-1.01.018-.21.519-.385.008zm.561 1.291-.385-.846-.351.859z"/></svg>