<svg width="73" height="24" viewBox="0 0 73 24" fill="none" xmlns="http://www.w3.org/2000/svg">
<path d="M73 20.7563C73 22.5474 71.5556 24 69.7738 24H3.22704C1.44496 24 0 22.5476 0 20.7563V3.24322C0 1.45227 1.44496 0 3.22704 0H69.7738C71.5556 0 73 1.45227 73 3.24322V20.7563Z" fill="black"/>
<path d="M18.9123 16.3935C18.5341 17.2684 18.3531 17.6588 17.8664 18.432C17.187 19.5117 16.2296 20.856 15.0434 20.8673C13.989 20.8775 13.7184 20.1511 12.2877 20.1593C10.8571 20.1674 10.5583 20.88 9.50384 20.87C8.31756 20.8585 7.41027 19.6447 6.73098 18.5652C4.83141 15.5466 4.63284 12.0041 5.80427 10.121C6.63698 8.78243 7.95013 7.99909 9.18527 7.99909C10.4427 7.99909 11.2331 8.71906 12.2727 8.71906C13.2811 8.71906 13.8958 7.99805 15.3496 7.99805C16.4483 7.99805 17.6127 8.62242 18.4424 9.70267C15.7243 11.2574 16.1657 15.3101 18.9123 16.3935Z" fill="white"/>
<path d="M14.2469 6.79198C14.7747 6.08439 15.1762 5.08482 15.0306 4.06348C14.1679 4.12551 13.1585 4.69844 12.5692 5.44555C12.0343 6.12391 11.5929 7.12974 11.7647 8.10709C12.7066 8.13736 13.681 7.55027 14.2469 6.79198Z" fill="white"/>
<path fill-rule="evenodd" clip-rule="evenodd" d="M22.1242 17.5252L24.9147 9.19043H26.3045L29.107 17.5252H27.7938L26.9371 14.966H24.2352L23.4021 17.5252H22.1242ZM25.9034 11.7366C25.7727 11.3192 25.671 10.9329 25.5768 10.5608C25.4768 10.972 25.3697 11.3616 25.2567 11.7221L24.5152 13.9464H26.6555L25.9034 11.7366Z" fill="white"/>
<path fill-rule="evenodd" clip-rule="evenodd" d="M30.7422 12.3123C31.1936 11.6821 31.8716 11.3506 32.718 11.3506C33.4331 11.3506 34.0815 11.6538 34.5443 12.2047C35.017 12.7675 35.2664 13.5335 35.2664 14.4194C35.2664 15.4219 34.9794 16.2612 34.4348 16.8449C33.9473 17.3686 33.2782 17.6573 32.5518 17.6573C31.8542 17.6573 31.2386 17.3847 30.853 16.9166V19.9145H29.6103V13.4904C29.6103 12.6742 29.5962 12.1057 29.5628 11.5893L29.5559 11.4833H30.6927L30.7422 12.3123ZM34.012 14.4677C34.012 13.4358 33.5162 12.3945 32.4083 12.3945C31.7109 12.3945 31.0957 12.8979 30.9103 13.6193C30.9066 13.6436 30.9021 13.6685 30.8975 13.6935C30.8958 13.7029 30.8941 13.7123 30.8924 13.7217L30.8909 13.7301C30.8722 13.8355 30.853 13.9435 30.853 14.033V15.047C30.853 15.2067 30.8682 15.3483 30.8971 15.4552C31.0647 16.1452 31.666 16.6254 32.3612 16.6254C33.3795 16.6254 34.012 15.7986 34.012 14.4677Z" fill="white"/>
<path fill-rule="evenodd" clip-rule="evenodd" d="M37.1415 12.3123C37.5933 11.6821 38.2712 11.3506 39.1174 11.3506C39.8326 11.3506 40.481 11.6538 40.9436 12.2047C41.4162 12.7675 41.666 13.5335 41.666 14.4194C41.666 15.4219 41.3784 16.2612 40.8349 16.8449C40.3465 17.3686 39.6773 17.6573 38.9508 17.6573C38.2534 17.6573 37.6382 17.3847 37.2526 16.9166V19.9145H36.0099V13.4904C36.0099 12.6742 35.9956 12.1063 35.9619 11.5893L35.9556 11.4833H37.0919L37.1415 12.3123ZM40.4114 14.4677C40.4114 13.4358 39.9155 12.3945 38.8082 12.3945C38.1105 12.3945 37.495 12.8979 37.3104 13.6194C37.3047 13.6527 37.2985 13.6867 37.2923 13.7206C37.2729 13.8287 37.2528 13.9406 37.2528 14.033V15.047C37.2528 15.2067 37.2677 15.3483 37.2966 15.4552C37.4639 16.1452 38.0659 16.6254 38.7607 16.6254C39.7784 16.6254 40.4114 15.7986 40.4114 14.4677Z" fill="white"/>
<path d="M47.1348 12.7217C45.975 12.2659 45.6034 11.9075 45.6034 11.2453C45.6034 10.6877 46.04 10.1254 47.016 10.1254C47.8211 10.1254 48.336 10.4094 48.4748 10.497L48.5801 10.563L48.9308 9.5107L48.8614 9.46952C48.6532 9.3457 48.0599 9.05762 47.0517 9.05762C45.4669 9.05762 44.36 10.007 44.36 11.3658C44.36 12.4617 45.0531 13.2278 46.5413 13.7768C47.5959 14.1768 47.9886 14.5865 47.9886 15.289C47.9886 16.0841 47.3829 16.5775 46.4089 16.5775C45.7744 16.5775 45.1216 16.3897 44.6177 16.0621L44.5098 15.9919L44.1763 17.0686L44.2375 17.1098C44.7067 17.4277 45.5897 17.6577 46.3378 17.6577C48.4738 17.6577 49.2311 16.3362 49.2311 15.2045C49.231 14.0375 48.6239 13.318 47.1348 12.7217Z" fill="white"/>
<path d="M51.4681 10.0479L50.2492 10.4361V11.4838H49.3569V12.4916H50.2492V15.5788C50.2492 16.325 50.3899 16.8481 50.6795 17.1787C50.9573 17.4876 51.3843 17.6576 51.882 17.6576C52.3516 17.6576 52.6855 17.5634 52.8425 17.507L52.9121 17.4821L52.8526 16.4724L52.7334 16.5096C52.5762 16.5585 52.4151 16.5774 52.1553 16.5774C51.6738 16.5774 51.4681 16.2682 51.4681 15.5425V12.4915H52.9672V11.4836H51.4681V10.0479Z" fill="white"/>
<path fill-rule="evenodd" clip-rule="evenodd" d="M53.094 14.5522C53.094 12.6676 54.3083 11.3506 56.0471 11.3506C56.8845 11.3506 57.6033 11.6491 58.1245 12.2132C58.6429 12.7748 58.9165 13.5458 58.9165 14.4437C58.9165 16.6517 57.3861 17.6573 55.9634 17.6573H55.9519C54.269 17.6573 53.094 16.3806 53.094 14.5522ZM57.6382 14.4799C57.6382 13.452 57.1291 12.3461 56.0112 12.3461C54.8629 12.3461 54.3487 13.4363 54.3489 14.5164C54.3489 15.7594 55.0332 16.6615 55.9756 16.6615H55.9876C56.9436 16.6615 57.6382 15.744 57.6382 14.4799Z" fill="white"/>
<path d="M62.7228 11.4092L62.6483 11.39C62.5388 11.3623 62.4495 11.3506 62.3392 11.3506C61.689 11.3506 61.1057 11.739 60.781 12.3657L60.7446 11.4832H59.6293L59.6365 11.5892C59.6696 12.0883 59.6833 12.6487 59.6833 13.4051L59.6718 17.5246H60.9145V14.3108C60.9145 14.1358 60.9262 13.9704 60.9488 13.8219C61.0888 13.0499 61.6023 12.5511 62.2563 12.5511C62.3834 12.5511 62.4836 12.5616 62.5897 12.5722L62.7227 12.5862V11.4092H62.7228Z" fill="white"/>
<path fill-rule="evenodd" clip-rule="evenodd" d="M62.7069 14.6008C62.7069 12.6801 63.8625 11.3389 65.5169 11.3389C67.3366 11.3389 67.9821 12.8752 67.9821 14.1905C67.9821 14.416 67.97 14.5888 67.9448 14.7169L67.9286 14.7975L63.9174 14.7853C63.9936 16.4329 65.2388 16.6137 65.7788 16.6137C66.5469 16.6137 66.9971 16.471 67.3358 16.3311L67.4395 16.2887L67.6783 17.2283L67.6034 17.2625C67.2225 17.4372 66.5715 17.6456 65.6358 17.6456C63.8565 17.6456 62.7069 16.4502 62.7069 14.6008ZM66.3465 12.6513C66.1197 12.417 65.8125 12.2982 65.4341 12.2982C64.5046 12.2982 64.0556 13.0972 63.9401 13.8252H66.7745C66.7666 13.5643 66.7041 13.0205 66.3465 12.6513Z" fill="white"/>
</svg>
