<svg width="73" height="24" viewBox="0 0 73 24" fill="none" xmlns="http://www.w3.org/2000/svg">
<path d="M73 20.7563C73 22.5474 71.5555 24 69.7737 24H3.22704C1.44496 24 0 22.5476 0 20.7563V3.24337C0 1.45242 1.44496 0 3.22704 0H69.7737C71.5555 0 73 1.45242 73 3.24337V20.7563Z" fill="#010101"/>
<path d="M5.07312 3.17676V11.5573V19.9376L13.174 11.5574L5.07312 3.17676Z" fill="url(#paint0_linear)"/>
<path d="M15.3498 9.30671L12.0798 7.33704L5.07312 3.11621V3.1772L13.174 11.5579L15.3498 9.30671Z" fill="url(#paint1_linear)"/>
<path d="M5.07312 19.9378V19.9988L12.0798 15.778L15.3497 13.8083L13.174 11.5576L5.07312 19.9378Z" fill="url(#paint2_linear)"/>
<path d="M15.3498 9.30566L13.174 11.5568L15.3496 13.8075L19.0868 11.5567L15.3498 9.30566Z" fill="url(#paint3_linear)"/>
<path fill-rule="evenodd" clip-rule="evenodd" d="M55.2403 14.6589C55.4916 14.7759 55.7694 14.8344 56.0736 14.8344C56.682 14.8344 57.1572 14.6129 57.5001 14.17C57.8422 13.7263 58.0135 13.1046 58.0135 12.3039C58.0135 11.5066 57.845 10.8868 57.5082 10.445C57.1715 10.0033 56.6933 9.78223 56.0737 9.78223C55.7613 9.78223 55.4841 9.84155 55.2426 9.96019C55.0011 10.0787 54.7892 10.2713 54.6072 10.5383H54.5731L54.4752 9.87106H53.8998V16.9337H54.607V14.928C54.607 14.6731 54.59 14.4033 54.556 14.1187H54.607C54.7777 14.3615 54.9888 14.5418 55.2403 14.6589ZM54.9354 10.8228C55.1486 10.5472 55.4937 10.4092 55.9712 10.4092C56.3861 10.4092 56.7083 10.5714 56.937 10.896C57.1656 11.2206 57.28 11.6871 57.28 12.2947C57.28 12.894 57.1656 13.364 56.937 13.7048C56.7081 14.0457 56.3919 14.2161 55.9881 14.2161C55.5053 14.2161 55.1543 14.0687 54.9354 13.7738C54.7164 13.4789 54.6069 12.9889 54.6069 12.3038V12.1395C54.6128 11.5375 54.7223 11.0985 54.9354 10.8228Z" fill="#F9F9FA"/>
<path d="M59.6516 14.7454H58.9441V7.8252H59.6516V14.7454Z" fill="#F9F9FA"/>
<path fill-rule="evenodd" clip-rule="evenodd" d="M63.579 14.0516L63.7198 14.7455H64.2439V11.4188C64.2439 10.8496 64.1096 10.436 63.8412 10.178C63.5725 9.91995 63.1598 9.79102 62.6028 9.79102C62.327 9.79102 62.0521 9.82809 61.778 9.90224C61.5036 9.97639 61.2516 10.0787 61.0211 10.2091L61.2387 10.774C61.7301 10.525 62.1708 10.4004 62.5602 10.4004C62.9066 10.4004 63.1592 10.4914 63.3168 10.674C63.4746 10.8561 63.5535 11.1386 63.5535 11.5211V11.8235L62.7604 11.8503C61.2516 11.8979 60.4969 12.4138 60.4969 13.3981C60.4969 13.8576 60.6284 14.2117 60.8913 14.4608C61.1543 14.7099 61.5173 14.8345 61.9805 14.8345C62.3271 14.8345 62.6163 14.7806 62.8478 14.6721C63.0795 14.5642 63.3118 14.3573 63.5449 14.0516H63.579ZM63.1594 13.8473C62.9076 14.0993 62.5618 14.2252 62.1214 14.2252C61.8425 14.2252 61.6261 14.1556 61.4714 14.0159C61.3163 13.8767 61.239 13.6735 61.239 13.4068C61.239 13.0659 61.3633 12.8145 61.6119 12.6531C61.8608 12.4912 62.2662 12.4002 62.8288 12.3792L63.5368 12.3483V12.7885C63.5368 13.2425 63.4107 13.5954 63.1594 13.8473Z" fill="#F9F9FA"/>
<path d="M64.6549 9.87027H65.4135L66.4366 12.65C66.661 13.2847 66.8005 13.7426 66.8546 14.0244H66.8887C66.9257 13.8729 67.0032 13.6144 67.121 13.2479C67.2389 12.8817 67.6248 11.756 68.2783 9.87012H69.0373L67.0293 15.4205C66.8304 15.9691 66.5981 16.3583 66.3321 16.5883C66.0665 16.8179 65.7403 16.9326 65.354 16.9326C65.1379 16.9326 64.9248 16.9074 64.7144 16.8572V16.2658C64.8706 16.3014 65.0457 16.3192 65.2389 16.3192C65.7249 16.3192 66.0713 16.0346 66.279 15.4651L66.5389 14.7715L64.6549 9.87027Z" fill="#F9F9FA"/>
<path fill-rule="evenodd" clip-rule="evenodd" d="M42.9654 10.3232C43.1899 10.517 43.659 10.9246 43.659 11.6998C43.659 12.4537 43.2485 12.8113 42.838 13.1472L42.8231 13.1627C42.6998 13.2909 42.5645 13.4315 42.5645 13.6474C42.5645 13.869 42.7081 13.9912 42.8157 14.0827L42.8189 14.0855L43.1709 14.3704C43.6008 14.7478 43.9913 15.0947 43.9913 15.7985C43.9913 16.7567 43.1019 17.7251 41.4215 17.7251C40.0043 17.7251 39.3206 17.0218 39.3206 16.2669C39.3206 15.8999 39.4958 15.3802 40.073 15.0231C40.6646 14.6446 41.4624 14.5878 41.9086 14.556L41.9395 14.5538L41.922 14.5306C41.7894 14.354 41.6462 14.1634 41.6462 13.8612C41.6462 13.7055 41.6859 13.6071 41.7293 13.4995L41.744 13.4631C41.636 13.4735 41.5287 13.4836 41.431 13.4836C40.3955 13.4836 39.8091 12.6781 39.8091 11.8832C39.8091 11.4141 40.0146 10.894 40.4342 10.517C40.9915 10.0378 41.6559 9.95605 42.184 9.95605H44.1967L43.5712 10.3232H42.9654ZM42.2713 14.8503C42.1933 14.8395 42.1441 14.8395 42.047 14.8395C41.9591 14.8395 41.4307 14.8603 41.0206 15.0036C40.8057 15.0845 40.1801 15.3292 40.1801 16.0533C40.1801 16.7768 40.8547 17.2976 41.9005 17.2976C42.838 17.2976 43.3368 16.8277 43.3368 16.196C43.3368 15.6752 43.0143 15.401 42.2713 14.8503ZM42.7986 12.1685C42.7986 12.3522 42.7793 12.6781 42.5549 12.9128C42.3978 13.0761 42.1347 13.1984 41.8903 13.1984C41.0495 13.1984 40.6683 12.0668 40.6683 11.3837C40.6683 11.1182 40.7176 10.8434 40.8836 10.6293C41.0401 10.425 41.3133 10.2928 41.5677 10.2928C42.3787 10.2928 42.7986 11.4345 42.7986 12.1685Z" fill="#F9F9FA"/>
<path fill-rule="evenodd" clip-rule="evenodd" d="M34.433 12.2845C34.433 13.4248 35.2622 14.6871 36.8133 14.6871C38.404 14.6871 39.2914 13.4143 39.2914 12.2137C39.2914 10.9817 38.3937 9.81152 36.9602 9.81152C35.4767 9.81152 34.433 10.951 34.433 12.2845ZM38.3257 12.7326C38.3257 13.1298 38.2671 13.5368 38.0325 13.8629C37.8087 14.1882 37.4184 14.3812 37.0381 14.3812C35.8572 14.3812 35.3791 12.7225 35.3791 11.7155C35.3791 11.2773 35.4479 10.8292 35.8283 10.4734C36.0624 10.2593 36.3843 10.1267 36.7061 10.1267C37.9159 10.1267 38.3257 11.8366 38.3257 12.7326Z" fill="#F9F9FA"/>
<path fill-rule="evenodd" clip-rule="evenodd" d="M29.1445 12.2845C29.1445 13.4248 29.9739 14.6871 31.5253 14.6871C33.1157 14.6871 34.0032 13.4143 34.0032 12.2137C34.0032 10.9817 33.1057 9.81152 31.6718 9.81152C30.1887 9.81152 29.1445 10.951 29.1445 12.2845ZM33.0377 12.7326C33.0377 13.1298 32.9789 13.5368 32.7448 13.8629C32.5206 14.1882 32.1306 14.3812 31.7501 14.3812C30.569 14.3812 30.0912 12.7225 30.0912 11.7155C30.0912 11.2773 30.1596 10.8292 30.54 10.4734C30.774 10.2593 31.0961 10.1267 31.4178 10.1267C32.6276 10.1267 33.0377 11.8366 33.0377 12.7326Z" fill="#F9F9FA"/>
<path d="M28.3993 14.5279L26.9966 14.8657C26.4274 14.958 25.9174 15.0392 25.3783 15.0392C22.6708 15.0392 21.6412 12.9617 21.6412 11.3344C21.6412 9.34932 23.1024 7.50781 25.6041 7.50781C26.134 7.50781 26.6435 7.58938 27.1045 7.7227C27.8401 7.93758 28.1835 8.20346 28.3993 8.35721L27.5849 9.1656L27.2417 9.24702L27.487 8.83768C27.1536 8.50022 26.545 7.87614 25.388 7.87614C23.8381 7.87614 22.6708 9.10462 22.6708 10.8954C22.6708 12.8188 24.005 14.6302 26.1428 14.6302C26.7713 14.6302 27.0943 14.4973 27.3888 14.3741V12.7266L25.9079 12.8084L26.6923 12.3678H28.7719L28.5171 12.6236C28.4479 12.6853 28.4384 12.7059 28.4187 12.7872C28.4086 12.8795 28.3993 13.1765 28.3993 13.2788V14.5279Z" fill="#F9F9FA"/>
<path d="M46.0655 14.2328C45.7416 14.2021 45.6739 14.1409 45.6739 13.7413V13.6285V7.94907C45.6758 7.92698 45.6772 7.90443 45.6791 7.88309C45.7187 7.52505 45.8166 7.46377 46.121 7.2793H44.7179L43.9819 7.64778H44.7318V7.65247L44.7312 7.64869V13.6287V13.9668C44.7312 14.1711 44.6925 14.2021 44.4667 14.5088H46.203L46.5659 14.2842C46.3995 14.2631 46.2324 14.2531 46.0655 14.2328Z" fill="#F9F9FA"/>
<path fill-rule="evenodd" clip-rule="evenodd" d="M49.9519 14.389C49.9869 14.3678 50.0219 14.3467 50.0568 14.3267L50.5733 13.8187C50.2422 13.9912 49.8816 14.1739 49.3849 14.1739C48.4591 14.1739 47.6214 13.4224 47.3783 12.1317L48.1284 12.0707L50.4169 11.1048C50.3492 10.871 50.2226 10.434 49.736 10.0993C49.4437 9.9057 49.0828 9.81445 48.7321 9.81445C47.7288 9.81445 46.5015 10.5868 46.5015 12.1618C46.5015 12.9239 46.8034 13.798 47.4946 14.3065C47.9919 14.6821 48.4793 14.7029 48.7903 14.7029C49.083 14.7029 49.414 14.6622 49.7361 14.5098C49.8079 14.4758 49.8799 14.4324 49.9519 14.389ZM49.4238 11.0236C49.4238 11.1657 49.3262 11.2268 49.1416 11.2978L47.3687 12.1012C47.3653 12.0391 47.3608 11.9772 47.3564 11.9157C47.3477 11.7952 47.3391 11.6764 47.3391 11.562C47.3391 10.4647 48.0692 10.1495 48.4593 10.1495C48.9858 10.1495 49.4238 10.6174 49.4238 11.0236Z" fill="#F9F9FA"/>
<path d="M50.9972 9.90821V10.7944H50.9192V9.90821H50.7065V9.81641H51.2098V9.90821H50.9972Z" fill="#F9F9FA"/>
<path d="M51.8734 10.7946V9.90001H51.8698L51.6718 10.7946H51.6108L51.411 9.90001H51.4086V10.7946H51.3376V9.81641H51.4592L51.6399 10.607H51.6424L51.8204 9.81641H51.9436V10.7946H51.8734Z" fill="#F9F9FA"/>
<defs>
<linearGradient id="paint0_linear" x1="5.07312" y1="3.17676" x2="5.07312" y2="19.9376" gradientUnits="userSpaceOnUse">
<stop stop-color="#277CB0"/>
<stop offset="0.2863" stop-color="#4B93B6"/>
<stop offset="0.767" stop-color="#79BDBB"/>
<stop offset="1" stop-color="#89CFBD"/>
</linearGradient>
<linearGradient id="paint1_linear" x1="5.07312" y1="11.5579" x2="15.3498" y2="11.5579" gradientUnits="userSpaceOnUse">
<stop stop-color="#55C1AE"/>
<stop offset="1" stop-color="#DEE99B"/>
</linearGradient>
<linearGradient id="paint2_linear" x1="5.07312" y1="11.5576" x2="5.07312" y2="19.9988" gradientUnits="userSpaceOnUse">
<stop stop-color="#EC423D"/>
<stop offset="0.1668" stop-color="#DA4553"/>
<stop offset="0.5748" stop-color="#B1497B"/>
<stop offset="0.8619" stop-color="#964C93"/>
<stop offset="1" stop-color="#8A4B9D"/>
</linearGradient>
<linearGradient id="paint3_linear" x1="13.174" y1="9.30566" x2="13.174" y2="13.8075" gradientUnits="userSpaceOnUse">
<stop stop-color="#F58979"/>
<stop offset="0.1194" stop-color="#F6917A"/>
<stop offset="0.7128" stop-color="#FCB878"/>
<stop offset="1" stop-color="#FEC975"/>
</linearGradient>
</defs>
</svg>
