<svg width="24" height="24" viewBox="0 0 24 24" fill="none" xmlns="http://www.w3.org/2000/svg">
<path d="M24 20.7579C24 22.5477 22.5477 24 20.7433 24H3.25672C1.46699 24 0 22.5477 0 20.7579V3.24205C0 1.45232 1.45232 0 3.25672 0H20.7433C22.533 0 24 1.45232 24 3.24205V20.7579Z" fill="#010101"/>
<path fill-rule="evenodd" clip-rule="evenodd" d="M17.7133 6.0531L12.6468 4.15576L12.544 4.11328L12.4265 4.15576L7.3748 6.06726L2.32305 7.96461L2.13214 8.03541V8.23364V12.0425V15.8513V16.0496L2.32305 16.1204L7.3748 18.0177L12.4265 19.9151L12.544 19.9575L12.6615 19.9151L17.7133 18.0177L22.765 16.1204L22.9559 16.0496V15.8513V12.0425V8.23364V8.03541L22.765 7.96461L17.7133 6.0531ZM12.544 4.75045L17.493 6.60532L22.3538 8.43187V12.0283V15.6248L17.493 17.4513L12.544 19.3062L7.59508 17.4513L2.73424 15.6248V12.0283V8.43187L7.59508 6.60532L12.544 4.75045Z" fill="white"/>
<path fill-rule="evenodd" clip-rule="evenodd" d="M4.26154 15.0162H5.53916V14.5348H4.74615V9.06934H4.26154V15.0162ZM7.8007 9.06934L8.41748 15.0162H7.93286L7.77133 13.3879H7.34545L7.18391 15.0162H6.6993L7.31608 9.06934H7.8007ZM9.81258 9.0835H10.8993L11.3545 9.55075V11.5047L11.0168 11.8162L11.3545 12.1277V15.0021H10.8699V12.0428H10.3119V15.0021H9.81258V9.0835ZM14.4238 10.3437H13.9392V9.57907H13.3811V11.5755H13.8657L14.3503 12.0286V14.5065L13.8657 14.9879H13.3811L12.8818 14.5065V13.3738H13.3958V14.4923H13.8657V12.0711H13.3811L12.8965 11.5755V9.49411L13.3811 9.0835H13.9392L14.4238 9.57907V10.3437ZM17.4783 9.62155L17.0965 9.0835H16.2594L15.8776 9.62155V14.5207L16.2594 15.0162H17.0965L17.4783 14.5207V9.62155ZM20.3273 9.0835H20.8266V15.0021H20.3273L19.4608 11.4056H19.4462V15.0021H18.9615V9.0835H19.4462H19.4608L20.3273 12.68V9.0835ZM16.9937 14.5207V9.59323H16.3769V14.5207H16.9937ZM10.8699 9.59323V11.5897H10.3119V9.59323H10.8699ZM7.72727 12.9207H7.5951H7.52168H7.38951L7.50699 11.5755H7.60979L7.72727 12.9207Z" fill="white"/>
<path fill-rule="evenodd" clip-rule="evenodd" d="M14.9966 17.2379L14.556 17.3712L14.3798 16.7046L14.8203 16.5879L14.8497 16.6879L14.5119 16.7879L14.556 16.9546L14.8497 16.8712L14.8791 16.9712L14.5854 17.0546L14.6294 17.2379L14.9672 17.1379L14.9966 17.2379ZM14.1008 17.4379C14.0714 17.4546 14.042 17.4712 13.998 17.4712C13.9686 17.4879 13.9392 17.4879 13.8805 17.4046C13.8511 17.4046 13.8217 17.3879 13.7924 17.3712C13.763 17.3546 13.7336 17.3379 13.7189 17.3046C13.6896 17.2879 13.6749 17.2546 13.6602 17.2212C13.6455 17.1879 13.6308 17.1379 13.6308 17.1046V16.9879C13.6308 16.9546 13.6455 16.9212 13.6602 16.8879C13.6749 16.8546 13.6896 16.8379 13.7189 16.8046C13.7336 16.7712 13.763 16.7546 13.7924 16.7379C13.8217 16.7212 13.8511 16.7046 13.8952 16.7046H13.998C14.0148 16.7109 14.0273 16.7149 14.038 16.7182C14.0554 16.7237 14.0679 16.7276 14.0861 16.7379C14.1154 16.7546 14.1448 16.7712 14.1595 16.7879L14.1008 16.8879C14.0934 16.8796 14.0824 16.8754 14.0714 16.8712C14.0604 16.8671 14.0494 16.8629 14.042 16.8546C14.0347 16.8546 14.0237 16.8504 14.0126 16.8462C14.0016 16.8421 13.9906 16.8379 13.9833 16.8379H13.9245C13.903 16.8379 13.8894 16.8468 13.8721 16.8581C13.8658 16.8623 13.859 16.8668 13.8511 16.8712C13.8217 16.8879 13.807 16.9046 13.7924 16.9379C13.7777 16.9546 13.763 16.9879 13.763 17.0212V17.1212C13.7703 17.1379 13.774 17.1546 13.7777 17.1712C13.7813 17.1879 13.785 17.2046 13.7924 17.2212C13.7924 17.2379 13.8217 17.2712 13.8364 17.2879L13.8364 17.2879C13.8658 17.3212 13.8805 17.3379 13.9098 17.3379H13.998C14.0126 17.3379 14.042 17.3379 14.0567 17.3212C14.0861 17.3212 14.1008 17.3046 14.1154 17.2879L14.1595 17.2379L14.2329 17.3046C14.2182 17.3379 14.1889 17.3712 14.1742 17.3879C14.1595 17.4046 14.1301 17.4212 14.1008 17.4379ZM13.2637 17.5546L13.3665 17.5379L13.3077 16.8546L13.205 16.8712L13.2637 17.5546ZM12.8231 16.8879H12.9406L12.7056 17.5879H12.6175L12.3385 16.9046H12.456L12.6616 17.4212L12.8231 16.8879ZM11.9126 17.2212L11.7364 17.2046L11.7511 16.9712L11.9126 16.9879C11.942 16.9879 11.9567 16.9879 11.9861 17.0046C11.9934 17.0129 12.0008 17.0171 12.0081 17.0212C12.0154 17.0254 12.0228 17.0296 12.0301 17.0379C12.0448 17.0546 12.0448 17.0712 12.0448 17.1046C12.0448 17.1129 12.0411 17.1254 12.0375 17.1379L12.0375 17.1379C12.0338 17.1504 12.0301 17.1629 12.0301 17.1712C12.0154 17.1879 12.0008 17.2046 11.9861 17.2046C11.98 17.2046 11.9714 17.2074 11.9613 17.2108C11.9471 17.2155 11.9298 17.2212 11.9126 17.2212ZM11.707 17.5379H11.6043L11.663 16.8712L11.9273 16.8879C11.9714 16.8879 12.0154 16.9046 12.0448 16.9212C12.0742 16.9379 12.1036 16.9712 12.1182 17.0046C12.1329 17.0379 12.1329 17.0712 12.1329 17.1212C12.1256 17.1379 12.1219 17.1546 12.1182 17.1712L12.1182 17.1712L12.1182 17.1712C12.1146 17.1879 12.1109 17.2046 12.1036 17.2212C12.0889 17.2546 12.0742 17.2712 12.0448 17.2879C12.0301 17.3046 12.0008 17.3212 11.9714 17.3212L12.1182 17.5879L11.9861 17.5712L11.8539 17.3212L11.7217 17.3046L11.707 17.5379ZM10.8406 17.4212L11.2959 17.5046L11.3105 17.4046L10.9728 17.3379L11.0022 17.1546L11.2959 17.2212L11.3105 17.1212L11.0168 17.0546L11.0462 16.8712L11.384 16.9379L11.3987 16.8379L10.9581 16.7546L10.8406 17.4212ZM10.3854 17.3379C10.356 17.3379 10.3266 17.3379 10.2973 17.3212C10.2688 17.3105 10.2404 17.2927 10.208 17.2726C10.1902 17.2615 10.1712 17.2497 10.1504 17.2379C10.1063 17.2046 10.077 17.1712 10.0476 17.1212L10.1357 17.0546C10.1504 17.0879 10.1651 17.1046 10.1798 17.1212C10.1871 17.1296 10.1981 17.1379 10.2091 17.1462C10.2202 17.1546 10.2312 17.1629 10.2385 17.1712C10.2532 17.1879 10.2679 17.2046 10.2973 17.2046H10.356C10.3707 17.2046 10.3854 17.2046 10.4001 17.1879C10.4147 17.1879 10.4294 17.1712 10.4294 17.1546V17.1212C10.4294 17.1139 10.4294 17.1099 10.4282 17.1062C10.4266 17.1014 10.423 17.0973 10.4147 17.0879C10.4147 17.0776 10.4091 17.0737 10.4014 17.0682C10.3966 17.0649 10.391 17.0609 10.3854 17.0546C10.3707 17.0379 10.356 17.0212 10.3266 17.0046C10.2973 16.9879 10.2679 16.9712 10.2532 16.9546C10.2238 16.9379 10.2091 16.9212 10.1945 16.9046C10.1798 16.8879 10.1651 16.8546 10.1651 16.8379C10.1556 16.8271 10.1584 16.8094 10.1615 16.7892C10.1632 16.7782 10.1651 16.7664 10.1651 16.7546C10.1651 16.7379 10.1798 16.7046 10.1945 16.6879C10.2018 16.6796 10.2128 16.6712 10.2238 16.6629C10.2348 16.6546 10.2459 16.6462 10.2532 16.6379C10.2826 16.6212 10.2973 16.6212 10.3266 16.6212C10.356 16.6212 10.3854 16.6212 10.4147 16.6379C10.4506 16.6379 10.4865 16.66 10.5144 16.6772C10.5208 16.6811 10.5268 16.6848 10.5322 16.6879C10.5616 16.7101 10.5779 16.7323 10.5942 16.7546C10.6024 16.7657 10.6105 16.7768 10.6203 16.7879L10.5469 16.8546C10.5365 16.8427 10.5279 16.8309 10.5199 16.8199C10.5053 16.7997 10.4924 16.782 10.4735 16.7712C10.4588 16.7546 10.4294 16.7379 10.4001 16.7379H10.3413C10.3266 16.7379 10.3119 16.7379 10.2973 16.7546C10.2973 16.7546 10.2826 16.7712 10.2826 16.7879V16.8212C10.2826 16.8379 10.2826 16.8379 10.2973 16.8546C10.3046 16.8629 10.3119 16.8671 10.3193 16.8712C10.3266 16.8754 10.334 16.8796 10.3413 16.8879C10.356 16.9046 10.3707 16.9212 10.4001 16.9379C10.4294 16.9546 10.4588 16.9712 10.4735 16.9879L10.5175 17.0379C10.5266 17.0482 10.5301 17.0585 10.5349 17.0727C10.5378 17.0815 10.5413 17.0918 10.5469 17.1046C10.5564 17.1261 10.5536 17.1407 10.5505 17.1573C10.5488 17.1664 10.5469 17.1761 10.5469 17.1879C10.5469 17.2212 10.5322 17.2546 10.5175 17.2712C10.5029 17.2879 10.4882 17.3046 10.4588 17.3212C10.4441 17.3379 10.4147 17.3379 10.3854 17.3379Z" fill="white"/>
<path d="M11.472 7.03052C11.4427 6.86061 11.5601 6.70485 11.7364 6.67653C11.8538 6.66238 11.9273 6.69069 11.986 6.73317L11.9273 6.81813C11.8685 6.77565 11.8098 6.76149 11.7364 6.77565C11.6189 6.78981 11.5455 6.90308 11.5601 7.01636C11.5748 7.12963 11.6776 7.21459 11.7951 7.20043C11.8685 7.18627 11.9126 7.15795 11.9566 7.10131L12.0301 7.15795C11.9713 7.22875 11.9126 7.28538 11.7951 7.29954C11.6629 7.3137 11.5014 7.20043 11.472 7.03052Z" fill="white"/>
<path fill-rule="evenodd" clip-rule="evenodd" d="M13.7736 6.70559L13.2458 6.66211L13.1902 7.57515L13.3847 7.59689L13.4125 7.27081L13.6625 7.29254L13.9125 7.64037L14.1625 7.66211L13.8847 7.29254C14.0514 7.27081 14.1625 7.18385 14.1902 7.03167C14.1902 6.85776 14.0514 6.72733 13.7736 6.70559ZM13.968 6.9882C13.968 7.09689 13.8569 7.14037 13.718 7.14037L13.4125 7.09689L13.4402 6.79254L13.7458 6.81428C13.8847 6.83602 13.968 6.8795 13.968 6.9882Z" fill="white"/>
<path fill-rule="evenodd" clip-rule="evenodd" d="M12.8353 6.64746H12.6797L12.2797 7.64746H12.4575L12.5464 7.4149H12.9908L13.1019 7.64746H13.2797L12.8353 6.64746ZM12.7464 6.83351L12.9242 7.22886H12.5908L12.7464 6.83351Z" fill="white"/>
</svg>
