<svg width="826" height="652" viewBox="0 0 826 652" fill="none" xmlns="http://www.w3.org/2000/svg">
<g opacity="0.211658">
<path fill-rule="evenodd" clip-rule="evenodd" d="M406.954 650.228L411.381 652L826 489V164.706L411.414 0L0 163.033V489L406.954 650.228ZM411.431 627L24 473.402V179.598L411.398 26L802 181.273V473.369L411.431 627Z" fill="white"/>
<path d="M152.721 449.324H90.53V207.141H110.087V430.19H152.754V449.324H152.721Z" fill="white"/>
<path fill-rule="evenodd" clip-rule="evenodd" d="M247.485 449.324H269.001L249.809 207.173H218.531L199.306 449.324H220.789L225.338 383.377H243.235L247.485 449.324ZM234.137 250.802L241.973 364.243H226.633L234.137 250.802Z" fill="white"/>
<path fill-rule="evenodd" clip-rule="evenodd" d="M366.354 449.324H385.912V335.883L375.486 327.924L385.945 318.048V226.275L371.601 207.141H318.176V449.324H337.7V338.124L366.354 338.449V449.324ZM366.354 225.95V317.073H337.7V225.95H366.354Z" fill="white"/>
<path d="M500.531 433.081L486.519 449.324H447.106L433.094 433.081V377.952H452.618V428.306H480.941V338.124H447.737L433.094 318.99V226.275L447.737 207.141H486.154L500.498 226.275V277.895H480.974V225.95H452.651V319.315H486.187L500.531 338.449V433.081Z" fill="white"/>
<path fill-rule="evenodd" clip-rule="evenodd" d="M604.758 449.324L618.77 433.081H618.737V226.275L604.393 207.141H565.976L551.333 226.275V433.081L565.345 449.324H604.758ZM599.213 225.95V428.273H570.89V225.95H599.213Z" fill="white"/>
<path d="M750.324 449.324H722.964L693.977 261.652V449.324H674.453V207.141H705.731L730.8 369.019V207.141H750.324V449.324Z" fill="white"/>
<path fill-rule="evenodd" clip-rule="evenodd" d="M782.711 197.594V193.479H784.937L788.223 197.594H790.732L786.845 193.028C788.647 192.497 789.53 191.568 789.53 190.293C789.53 189.284 789.106 188.541 788.258 188.036C787.41 187.532 786.103 187.293 784.336 187.293H780.449V197.594H782.711ZM784.266 192.099H782.711H782.675V188.753H784.16C785.184 188.753 785.962 188.859 786.456 189.125C786.986 189.364 787.234 189.789 787.234 190.373C787.234 190.957 786.986 191.382 786.527 191.674C786.068 191.966 785.326 192.099 784.266 192.099Z" fill="white"/>
<path fill-rule="evenodd" clip-rule="evenodd" d="M770.167 192.443C770.167 200.952 777.098 207.895 785.591 207.895C794.084 207.895 801.014 200.952 801.014 192.443C801.014 183.934 794.084 176.991 785.591 176.991C777.064 176.991 770.167 183.934 770.167 192.443ZM772.206 192.443C772.206 185.058 778.219 179.033 785.591 179.033C792.962 179.033 798.942 185.058 798.976 192.443C798.976 199.829 792.962 205.853 785.591 205.853C778.219 205.853 772.206 199.829 772.206 192.443Z" fill="white"/>
<path d="M798.976 192.443H799.476L799.476 192.441L798.976 192.443ZM785.591 207.395C777.375 207.395 770.667 200.677 770.667 192.443H769.667C769.667 201.227 776.821 208.395 785.591 208.395V207.395ZM800.514 192.443C800.514 200.677 793.807 207.395 785.591 207.395V208.395C794.361 208.395 801.514 201.227 801.514 192.443H800.514ZM785.591 177.491C793.807 177.491 800.514 184.21 800.514 192.443H801.514C801.514 183.659 794.361 176.491 785.591 176.491V177.491ZM770.667 192.443C770.667 184.209 777.341 177.491 785.591 177.491V176.491C776.786 176.491 769.667 183.66 769.667 192.443H770.667ZM785.591 178.533C777.942 178.533 771.706 184.782 771.706 192.443H772.706C772.706 185.333 778.496 179.533 785.591 179.533V178.533ZM799.476 192.441C799.44 184.784 793.242 178.533 785.591 178.533V179.533C792.683 179.533 798.443 185.331 798.476 192.446L799.476 192.441ZM785.591 206.353C793.24 206.353 799.476 200.104 799.476 192.443H798.476C798.476 199.554 792.685 205.353 785.591 205.353V206.353ZM771.706 192.443C771.706 200.104 777.942 206.353 785.591 206.353V205.353C778.496 205.353 772.706 199.554 772.706 192.443H771.706Z" fill="#979797"/>
</g>
</svg>
