<svg width="31" height="31" viewBox="0 0 31 31" fill="none" xmlns="http://www.w3.org/2000/svg">
<g filter="url(#filter0_d)">
<path d="M28.9341 25.2957C28.9341 27.3043 27.3043 28.9341 25.2793 28.9341H5.65488C3.64634 28.9341 2 27.3043 2 25.2957V5.63841C2 3.62988 3.62988 2 5.65488 2H25.2793C27.2878 2 28.9341 3.62988 28.9341 5.63841V25.2957Z" fill="#010101"/>
<path fill-rule="evenodd" clip-rule="evenodd" d="M21.2622 8.50305L15.5823 6.29695L15.4671 6.24756L15.3354 6.29695L9.67196 8.51951L4.00855 10.7256L3.79453 10.8079V11.0384V15.4671V19.8957V20.1262L4.00855 20.2085L9.67196 22.4146L15.3354 24.6207L15.4671 24.6701L15.5988 24.6207L21.2622 22.4146L26.9256 20.2085L27.1396 20.1262V19.8957V15.4671V11.0384V10.8079L26.9256 10.7256L21.2622 8.50305ZM15.4671 6.98841L21.0153 9.14512L26.4646 11.2689V15.4506V19.6323L21.0153 21.7561L15.4671 23.9128L9.91892 21.7561L4.46953 19.6323V15.4506V11.2689L9.91892 9.14512L15.4671 6.98841Z" fill="white"/>
<path fill-rule="evenodd" clip-rule="evenodd" d="M6.18172 18.9244H7.61403V18.3646H6.72501V12.0097H6.18172V18.9244ZM10.1494 12.0097L10.8409 18.9244H10.2976L10.1165 17.0311H9.63903L9.45794 18.9244H8.91464L9.60611 12.0097H10.1494ZM12.4049 12.0262H13.6232L14.1335 12.5695V14.8414L13.7549 15.2036L14.1335 15.5658V18.9079H13.5903V15.4671H12.9646V18.9079H12.4049V12.0262ZM17.5744 13.4914H17.0311V12.6024H16.4055V14.9238H16.9488L17.4921 15.4506V18.3317L16.9488 18.8914H16.4055L15.8457 18.3317V17.0146H16.422V18.3152H16.9488V15.5H16.4055L15.8622 14.9238V12.5036L16.4055 12.0262H17.0311L17.5744 12.6024V13.4914ZM20.9988 12.6518L20.5707 12.0262H19.6323L19.2043 12.6518V18.3481L19.6323 18.9244H20.5707L20.9988 18.3481V12.6518ZM24.1927 12.0262H24.7524V18.9079H24.1927L23.2213 14.7262H23.2049V18.9079H22.6616V12.0262H23.2049H23.2213L24.1927 16.2079V12.0262ZM20.4555 18.3481V12.6189H19.764V18.3481H20.4555ZM13.5903 12.6189V14.9402H12.9646V12.6189H13.5903ZM10.0671 16.4878H9.91891H9.8366H9.68842L9.82013 14.9238H9.93538L10.0671 16.4878Z" fill="white"/>
<path fill-rule="evenodd" clip-rule="evenodd" d="M18.2165 21.4018L17.7226 21.5351L17.525 20.8685L18.0189 20.7518L18.0518 20.8518L17.6732 20.9518L17.7226 21.1185L18.0518 21.0351L18.0848 21.1351L17.7555 21.2185L17.8049 21.4018L18.1835 21.3018L18.2165 21.4018ZM17.2122 21.6018C17.1793 21.6185 17.1464 21.6351 17.097 21.6351C17.064 21.6518 17.0311 21.6518 16.9653 21.5685C16.9323 21.5685 16.8994 21.5518 16.8665 21.5351C16.8335 21.5185 16.8006 21.5018 16.7842 21.4685C16.7512 21.4518 16.7348 21.4185 16.7183 21.3851C16.7018 21.3518 16.6854 21.3018 16.6854 21.2685V21.1518C16.6854 21.1185 16.7018 21.0851 16.7183 21.0518C16.7348 21.0185 16.7512 21.0018 16.7842 20.9685C16.8006 20.9351 16.8335 20.9185 16.8665 20.9018C16.8994 20.8851 16.9323 20.8685 16.9817 20.8685H17.097C17.1158 20.8748 17.1299 20.8788 17.1419 20.8821C17.1613 20.8876 17.1754 20.8915 17.1957 20.9018C17.2287 20.9185 17.2616 20.9351 17.2781 20.9518L17.2122 21.0518C17.204 21.0435 17.1916 21.0393 17.1793 21.0351C17.1669 21.031 17.1546 21.0268 17.1464 21.0185C17.1381 21.0185 17.1258 21.0143 17.1134 21.0101C17.1011 21.006 17.0887 21.0018 17.0805 21.0018H17.0146C16.9905 21.0018 16.9753 21.0107 16.9559 21.0221C16.9488 21.0262 16.9412 21.0307 16.9323 21.0351C16.8994 21.0518 16.8829 21.0685 16.8665 21.1018C16.85 21.1185 16.8335 21.1518 16.8335 21.1851V21.2851C16.8418 21.3018 16.8459 21.3185 16.85 21.3351L16.85 21.3351L16.85 21.3351C16.8541 21.3518 16.8582 21.3685 16.8665 21.3851C16.8665 21.4018 16.8994 21.4351 16.9159 21.4518C16.9488 21.4851 16.9653 21.5018 16.9982 21.5018H17.097C17.1134 21.5018 17.1464 21.5018 17.1628 21.4851C17.1957 21.4851 17.2122 21.4685 17.2287 21.4518L17.2781 21.4018L17.3604 21.4685C17.3439 21.5018 17.311 21.5351 17.2945 21.5518C17.2781 21.5685 17.2451 21.5851 17.2122 21.6018ZM16.2738 21.7185L16.389 21.7018L16.3232 21.0185L16.2079 21.0351L16.2738 21.7185ZM15.7799 21.0518H15.9116L15.6482 21.7518H15.5494L15.2366 21.0685H15.3683L15.5988 21.5851L15.7799 21.0518ZM14.7592 21.3851L14.5616 21.3685L14.5781 21.1351L14.7592 21.1518C14.7921 21.1518 14.8085 21.1518 14.8415 21.1685C14.8497 21.1768 14.8579 21.181 14.8662 21.1851C14.8744 21.1893 14.8826 21.1935 14.8909 21.2018C14.9073 21.2185 14.9073 21.2351 14.9073 21.2685C14.9073 21.2768 14.9032 21.2893 14.8991 21.3018L14.8991 21.3018C14.895 21.3143 14.8909 21.3268 14.8909 21.3351C14.8744 21.3518 14.8579 21.3685 14.8415 21.3685C14.8347 21.3685 14.825 21.3713 14.8137 21.3747C14.7977 21.3794 14.7784 21.3851 14.7592 21.3851ZM14.5287 21.7018H14.4134L14.4793 21.0351L14.7756 21.0518C14.825 21.0518 14.8744 21.0685 14.9073 21.0851C14.9403 21.1018 14.9732 21.1351 14.9896 21.1685C15.0061 21.2018 15.0061 21.2351 15.0061 21.2851C14.9979 21.3018 14.9938 21.3185 14.9896 21.3351C14.9855 21.3518 14.9814 21.3685 14.9732 21.3851C14.9567 21.4185 14.9403 21.4351 14.9073 21.4518C14.8909 21.4685 14.8579 21.4851 14.825 21.4851L14.9896 21.7518L14.8415 21.7351L14.6933 21.4851L14.5451 21.4685L14.5287 21.7018ZM13.5573 21.5851L14.0677 21.6685L14.0842 21.5685L13.7055 21.5018L13.7384 21.3185L14.0677 21.3851L14.0842 21.2851L13.7549 21.2185L13.7878 21.0351L14.1665 21.1018L14.1829 21.0018L13.689 20.9185L13.5573 21.5851ZM13.047 21.5018C13.014 21.5018 12.9811 21.5018 12.9482 21.4851C12.9163 21.4744 12.8844 21.4567 12.8481 21.4365C12.8281 21.4254 12.8069 21.4136 12.7835 21.4018C12.7342 21.3685 12.7012 21.3351 12.6683 21.2851L12.7671 21.2185C12.7835 21.2518 12.8 21.2685 12.8165 21.2851C12.8247 21.2935 12.8371 21.3018 12.8494 21.3101C12.8617 21.3185 12.8741 21.3268 12.8823 21.3351C12.8988 21.3518 12.9153 21.3685 12.9482 21.3685H13.014C13.0305 21.3685 13.047 21.3685 13.0634 21.3518C13.0799 21.3518 13.0964 21.3351 13.0964 21.3185V21.2851C13.0964 21.278 13.0964 21.274 13.0951 21.2703C13.0934 21.2654 13.0893 21.2614 13.0799 21.2518C13.0799 21.2415 13.0736 21.2376 13.0649 21.2321C13.0595 21.2288 13.0533 21.2248 13.047 21.2185C13.0305 21.2018 13.014 21.1851 12.9811 21.1685C12.9482 21.1518 12.9153 21.1351 12.8988 21.1185C12.8659 21.1018 12.8494 21.0851 12.8329 21.0685C12.8165 21.0518 12.8 21.0185 12.8 21.0018C12.7894 20.991 12.7925 20.9733 12.796 20.9532C12.7979 20.9421 12.8 20.9303 12.8 20.9185C12.8 20.9018 12.8165 20.8685 12.8329 20.8518C12.8412 20.8435 12.8535 20.8351 12.8659 20.8268C12.8782 20.8185 12.8906 20.8101 12.8988 20.8018C12.9317 20.7851 12.9482 20.7851 12.9811 20.7851C13.014 20.7851 13.047 20.7851 13.0799 20.8018C13.1201 20.8018 13.1603 20.8239 13.1916 20.8411C13.1988 20.845 13.2055 20.8487 13.2116 20.8518C13.2445 20.874 13.2628 20.8962 13.2811 20.9185C13.2903 20.9296 13.2994 20.9407 13.3104 20.9518L13.2281 21.0185C13.2164 21.0067 13.2068 20.9949 13.1978 20.9838C13.1814 20.9636 13.167 20.9459 13.1457 20.9351C13.1293 20.9185 13.0964 20.9018 13.0634 20.9018H12.9976C12.9811 20.9018 12.9646 20.9018 12.9482 20.9185C12.9482 20.9185 12.9317 20.9351 12.9317 20.9518V20.9851C12.9317 20.9922 12.9317 20.9963 12.933 20.9999C12.9347 21.0048 12.9387 21.0089 12.9482 21.0185C12.9564 21.0268 12.9646 21.031 12.9729 21.0351C12.9811 21.0393 12.9893 21.0435 12.9976 21.0518C13.014 21.0685 13.0305 21.0851 13.0634 21.1018C13.0964 21.1185 13.1293 21.1351 13.1457 21.1518L13.1951 21.2018C13.2053 21.2121 13.2092 21.2224 13.2146 21.2366C13.2179 21.2454 13.2218 21.2557 13.2281 21.2685C13.2387 21.29 13.2356 21.3046 13.2321 21.3212C13.2301 21.3303 13.2281 21.34 13.2281 21.3518C13.2281 21.3851 13.2116 21.4185 13.1951 21.4351C13.1787 21.4518 13.1622 21.4685 13.1293 21.4851C13.1128 21.5018 13.0799 21.5018 13.047 21.5018Z" fill="white"/>
<path d="M14.2653 9.64592C14.2323 9.44592 14.364 9.26258 14.5616 9.22925C14.6933 9.21258 14.7756 9.24592 14.8415 9.29592L14.7756 9.39592C14.7098 9.34592 14.6439 9.32925 14.5616 9.34592C14.4299 9.36258 14.3476 9.49592 14.364 9.62925C14.3805 9.76258 14.4957 9.86258 14.6274 9.84592C14.7098 9.82925 14.7592 9.79592 14.8085 9.72925L14.8909 9.79592C14.825 9.87925 14.7592 9.94592 14.6274 9.96258C14.4793 9.97925 14.2982 9.84592 14.2653 9.64592Z" fill="white"/>
<path fill-rule="evenodd" clip-rule="evenodd" d="M16.7748 9.25606L16.247 9.21259L16.1915 10.1256L16.3859 10.1474L16.4137 9.82128L16.6637 9.84302L16.9137 10.1908L17.1637 10.2126L16.8859 9.84302C17.0526 9.82128 17.1637 9.73432 17.1915 9.58215C17.1915 9.40824 17.0526 9.2778 16.7748 9.25606ZM16.9692 9.53867C16.9692 9.64737 16.8581 9.69085 16.7192 9.69085L16.4137 9.64737L16.4415 9.34302L16.747 9.36476C16.8859 9.3865 16.9692 9.42998 16.9692 9.53867Z" fill="white"/>
<path fill-rule="evenodd" clip-rule="evenodd" d="M15.7263 9.19592H15.5707L15.1707 10.1959H15.3485L15.4374 9.96336H15.8819L15.993 10.1959H16.1707L15.7263 9.19592ZM15.6374 9.38197L15.8152 9.77732H15.4819L15.6374 9.38197Z" fill="white"/>
</g>
<defs>
<filter id="filter0_d" x="0" y="0" width="30.9341" height="30.9341" filterUnits="userSpaceOnUse" color-interpolation-filters="sRGB">
<feFlood flood-opacity="0" result="BackgroundImageFix"/>
<feColorMatrix in="SourceAlpha" type="matrix" values="0 0 0 0 0 0 0 0 0 0 0 0 0 0 0 0 0 0 127 0"/>
<feOffset/>
<feGaussianBlur stdDeviation="1"/>
<feColorMatrix type="matrix" values="0 0 0 0 1 0 0 0 0 1 0 0 0 0 1 0 0 0 0.5 0"/>
<feBlend mode="normal" in2="BackgroundImageFix" result="effect1_dropShadow"/>
<feBlend mode="normal" in="SourceGraphic" in2="effect1_dropShadow" result="shape"/>
</filter>
</defs>
</svg>
