<svg width="86" height="31" viewBox="0 0 86 31" fill="none" xmlns="http://www.w3.org/2000/svg">
<g filter="url(#filter0_d)">
<path d="M84 25.3509C84 27.3659 82.3774 29 80.3759 29H5.62489C3.62311 29 2 27.366 2 25.3509V5.64879C2 3.63397 3.62311 2 5.62489 2H80.3759C82.3774 2 84 3.63397 84 5.64879V25.3509Z" fill="#010101"/>
<path d="M8.0821 6.19656V15.5082V24.8198L17.18 15.5084L8.0821 6.19656Z" fill="url(#paint0_linear)"/>
<path d="M19.6236 13.0071L15.9511 10.8186L8.0821 6.12878V6.19655L17.18 15.5084L19.6236 13.0071Z" fill="url(#paint1_linear)"/>
<path d="M8.0821 24.8197V24.8875L15.9511 20.1977L19.6234 18.0092L17.18 15.5084L8.0821 24.8197Z" fill="url(#paint2_linear)"/>
<path d="M19.6236 13.0071L17.18 15.5084L19.6234 18.0092L23.8206 15.5082L19.6236 13.0071Z" fill="url(#paint3_linear)"/>
<path fill-rule="evenodd" clip-rule="evenodd" d="M64.4237 18.9536C64.706 19.0836 65.018 19.1487 65.3596 19.1487C66.0429 19.1487 66.5766 18.9025 66.9616 18.4104C67.3459 17.9174 67.5383 17.2266 67.5383 16.337C67.5383 15.4511 67.349 14.7624 66.9708 14.2716C66.5927 13.7808 66.0556 13.5351 65.3597 13.5351C65.0088 13.5351 64.6976 13.601 64.4263 13.7328C64.1551 13.8645 63.9171 14.0785 63.7127 14.3751H63.6744L63.5645 13.6338H62.9182V21.4811H63.7125V19.2526C63.7125 18.9694 63.6935 18.6696 63.6552 18.3534H63.7125C63.9043 18.6232 64.1413 18.8235 64.4237 18.9536ZM64.0813 14.6912C64.3208 14.3851 64.7083 14.2317 65.2446 14.2317C65.7106 14.2317 66.0724 14.412 66.3293 14.7726C66.586 15.1333 66.7145 15.6517 66.7145 16.3268C66.7145 16.9926 66.586 17.5148 66.3293 17.8935C66.0722 18.2723 65.7171 18.4616 65.2636 18.4616C64.7213 18.4616 64.3271 18.2979 64.0813 17.9702C63.8353 17.6425 63.7124 17.098 63.7124 16.3368V16.1542C63.719 15.4854 63.842 14.9976 64.0813 14.6912Z" fill="#F9F9FA"/>
<path d="M69.378 19.0498H68.5834V11.3607H69.378V19.0498Z" fill="#F9F9FA"/>
<path fill-rule="evenodd" clip-rule="evenodd" d="M73.7888 18.2789L73.947 19.0498H74.5355V15.3536C74.5355 14.721 74.3847 14.2615 74.0833 13.9748C73.7814 13.6881 73.318 13.5449 72.6925 13.5449C72.3827 13.5449 72.074 13.5861 71.7661 13.6684C71.4579 13.7508 71.175 13.8645 70.9161 14.0094L71.1605 14.6371C71.7123 14.3603 72.2072 14.222 72.6446 14.222C73.0336 14.222 73.3174 14.323 73.4943 14.526C73.6715 14.7282 73.7601 15.0422 73.7601 15.4672V15.8032L72.8694 15.8329C71.175 15.8859 70.3274 16.4591 70.3274 17.5527C70.3274 18.0633 70.475 18.4568 70.7703 18.7335C71.0656 19.0103 71.4734 19.1487 71.9935 19.1487C72.3828 19.1487 72.7076 19.0888 72.9676 18.9683C73.2278 18.8484 73.4887 18.6185 73.7505 18.2789H73.7888ZM73.3175 18.0519C73.0347 18.3319 72.6464 18.4717 72.1518 18.4717C71.8386 18.4717 71.5955 18.3944 71.4217 18.2392C71.2476 18.0845 71.1608 17.8587 71.1608 17.5624C71.1608 17.1836 71.3004 16.9043 71.5796 16.7249C71.8591 16.545 72.3144 16.444 72.9463 16.4206L73.7414 16.3863V16.8754C73.7414 17.3798 73.5998 17.7719 73.3175 18.0519Z" fill="#F9F9FA"/>
<path d="M74.9971 13.6338H75.8491L76.9982 16.7224C77.2502 17.4276 77.4069 17.9364 77.4676 18.2495H77.5059C77.5474 18.0811 77.6344 17.794 77.7667 17.3867C77.8991 16.9798 78.3326 15.729 79.0664 13.6336H79.9189L77.6637 19.8007C77.4404 20.4102 77.1795 20.8427 76.8807 21.0983C76.5824 21.3534 76.2161 21.4808 75.7823 21.4808C75.5396 21.4808 75.3003 21.4529 75.0639 21.3971V20.74C75.2394 20.7795 75.436 20.7993 75.653 20.7993C76.1988 20.7993 76.5878 20.4831 76.8211 19.8503L77.113 19.0796L74.9971 13.6338Z" fill="#F9F9FA"/>
<path fill-rule="evenodd" clip-rule="evenodd" d="M50.638 14.1371C50.8902 14.3525 51.417 14.8053 51.417 15.6667C51.417 16.5043 50.956 16.9017 50.495 17.2749L50.4782 17.2921C50.3397 17.4346 50.1878 17.5908 50.1878 17.8306C50.1878 18.0768 50.349 18.2126 50.4699 18.3144L50.4735 18.3174L50.8688 18.634C51.3517 19.0534 51.7902 19.4387 51.7902 20.2208C51.7902 21.2854 50.7913 22.3614 48.9041 22.3614C47.3125 22.3614 46.5446 21.58 46.5446 20.7412C46.5446 20.3334 46.7414 19.756 47.3897 19.3592C48.054 18.9387 48.95 18.8755 49.4512 18.8402L49.4858 18.8378L49.4662 18.812C49.3173 18.6158 49.1565 18.404 49.1565 18.0682C49.1565 17.8952 49.201 17.7859 49.2498 17.6663L49.2663 17.6258C49.1451 17.6374 49.0245 17.6487 48.9147 17.6487C47.7518 17.6487 47.0932 16.7537 47.0932 15.8704C47.0932 15.3492 47.3241 14.7713 47.7953 14.3525C48.4212 13.82 49.1674 13.7292 49.7605 13.7292H52.0208L51.3184 14.1371H50.638ZM49.8586 19.1672C49.7709 19.1553 49.7157 19.1553 49.6066 19.1553C49.5078 19.1553 48.9144 19.1783 48.4539 19.3375C48.2125 19.4275 47.5099 19.6994 47.5099 20.5039C47.5099 21.3078 48.2675 21.8864 49.442 21.8864C50.495 21.8864 51.0552 21.3643 51.0552 20.6625C51.0552 20.0837 50.6929 19.7791 49.8586 19.1672ZM50.4507 16.1874C50.4507 16.3915 50.429 16.7537 50.177 17.0145C50.0006 17.1959 49.7051 17.3318 49.4306 17.3318C48.4863 17.3318 48.0582 16.0744 48.0582 15.3154C48.0582 15.0205 48.1136 14.7151 48.3 14.4772C48.4757 14.2502 48.7826 14.1033 49.0683 14.1033C49.9791 14.1033 50.4507 15.3719 50.4507 16.1874Z" fill="#F9F9FA"/>
<path fill-rule="evenodd" clip-rule="evenodd" d="M41.0555 16.3162C41.0555 17.5831 41.9868 18.9857 43.7288 18.9857C45.5153 18.9857 46.5119 17.5715 46.5119 16.2375C46.5119 14.8686 45.5037 13.5684 43.8938 13.5684C42.2277 13.5684 41.0555 14.8345 41.0555 16.3162ZM45.4273 16.814C45.4273 17.2554 45.3615 17.7075 45.0981 18.0699C44.8467 18.4314 44.4084 18.6458 43.9813 18.6458C42.655 18.6458 42.1181 16.8028 42.1181 15.6839C42.1181 15.197 42.1953 14.6991 42.6226 14.3038C42.8855 14.0659 43.2469 13.9186 43.6084 13.9186C44.9671 13.9186 45.4273 15.8185 45.4273 16.814Z" fill="#F9F9FA"/>
<path fill-rule="evenodd" clip-rule="evenodd" d="M35.1161 16.3162C35.1161 17.5831 36.0476 18.9857 37.7899 18.9857C39.5761 18.9857 40.5728 17.5715 40.5728 16.2375C40.5728 14.8686 39.5648 13.5684 37.9544 13.5684C36.2888 13.5684 35.1161 14.8345 35.1161 16.3162ZM39.4884 16.814C39.4884 17.2554 39.4225 17.7075 39.1595 18.0699C38.9077 18.4314 38.4697 18.6458 38.0424 18.6458C36.7159 18.6458 36.1794 16.8028 36.1794 15.6839C36.1794 15.197 36.2561 14.6991 36.6834 14.3038C36.9461 14.0659 37.3079 13.9186 37.6692 13.9186C39.0279 13.9186 39.4884 15.8185 39.4884 16.814Z" fill="#F9F9FA"/>
<path d="M34.2792 18.8085L32.7038 19.1838C32.0646 19.2864 31.4919 19.3767 30.8864 19.3767C27.8456 19.3767 26.6894 17.0683 26.6894 15.2602C26.6894 13.0546 28.3304 11.0085 31.14 11.0085C31.7351 11.0085 32.3073 11.0991 32.825 11.2472C33.6512 11.486 34.0368 11.7814 34.2792 11.9522L33.3645 12.8504L32.9791 12.9409L33.2546 12.4861C32.8802 12.1111 32.1967 11.4177 30.8973 11.4177C29.1566 11.4177 27.8456 12.7827 27.8456 14.7725C27.8456 16.9096 29.3441 18.9222 31.745 18.9222C32.4508 18.9222 32.8136 18.7746 33.1443 18.6377V16.8072L31.4811 16.8979L32.3621 16.4085H34.6977L34.4115 16.6926C34.3338 16.7612 34.3232 16.7841 34.301 16.8744C34.2896 16.977 34.2792 17.307 34.2792 17.4207V18.8085Z" fill="#F9F9FA"/>
<path d="M54.1197 18.4812C53.756 18.447 53.6799 18.3791 53.6799 17.935V17.8098V11.4993C53.682 11.4747 53.6837 11.4497 53.6858 11.426C53.7303 11.0281 53.8402 10.96 54.1821 10.7551H52.6063L51.7797 11.1645H52.6219V11.1697L52.6213 11.1655V17.81V18.1856C52.6213 18.4126 52.5778 18.447 52.3241 18.7879H54.2742L54.6817 18.5383C54.4949 18.5148 54.3072 18.5037 54.1197 18.4812Z" fill="#F9F9FA"/>
<path fill-rule="evenodd" clip-rule="evenodd" d="M58.4845 18.6547C58.5238 18.6313 58.5631 18.6078 58.6023 18.5856L59.1824 18.0211C58.8105 18.2128 58.4055 18.4158 57.8478 18.4158C56.808 18.4158 55.8671 17.5808 55.5941 16.1467L56.4366 16.0789L59.0068 15.0057C58.9307 14.7459 58.7885 14.2603 58.242 13.8884C57.9138 13.6733 57.5085 13.5719 57.1146 13.5719C55.9878 13.5719 54.6094 14.4301 54.6094 16.1801C54.6094 17.0269 54.9486 17.9981 55.7248 18.563C56.2833 18.9804 56.8307 19.0036 57.1799 19.0036C57.5086 19.0036 57.8804 18.9583 58.2422 18.789C58.3228 18.7512 58.4037 18.703 58.4845 18.6547ZM57.8914 14.9154C57.8914 15.0733 57.7818 15.1412 57.5744 15.2201L55.5834 16.1127C55.5796 16.0438 55.5745 15.975 55.5696 15.9066C55.5598 15.7727 55.5501 15.6408 55.5501 15.5136C55.5501 14.2944 56.3702 13.9442 56.8082 13.9442C57.3995 13.9442 57.8914 14.4641 57.8914 14.9154Z" fill="#F9F9FA"/>
<path d="M59.6584 13.6648V14.551H59.5707V13.6648H59.3319V13.573H59.8972V13.6648H59.6584Z" fill="#F9F9FA"/>
<path d="M60.6424 14.551V13.6564H60.6384L60.416 14.551H60.3474L60.1231 13.6564H60.1203V14.551H60.0407V13.5728H60.1772L60.3802 14.3634H60.3829L60.5828 13.5728H60.7213V14.551H60.6424Z" fill="#F9F9FA"/>
</g>
<defs>
<filter id="filter0_d" x="0" y="0" width="86" height="31" filterUnits="userSpaceOnUse" color-interpolation-filters="sRGB">
<feFlood flood-opacity="0" result="BackgroundImageFix"/>
<feColorMatrix in="SourceAlpha" type="matrix" values="0 0 0 0 0 0 0 0 0 0 0 0 0 0 0 0 0 0 127 0"/>
<feOffset/>
<feGaussianBlur stdDeviation="1"/>
<feColorMatrix type="matrix" values="0 0 0 0 1 0 0 0 0 1 0 0 0 0 1 0 0 0 0.5 0"/>
<feBlend mode="normal" in2="BackgroundImageFix" result="effect1_dropShadow"/>
<feBlend mode="normal" in="SourceGraphic" in2="effect1_dropShadow" result="shape"/>
</filter>
<linearGradient id="paint0_linear" x1="8.0821" y1="6.19656" x2="8.0821" y2="24.8198" gradientUnits="userSpaceOnUse">
<stop stop-color="#277CB0"/>
<stop offset="0.2863" stop-color="#4B93B6"/>
<stop offset="0.767" stop-color="#79BDBB"/>
<stop offset="1" stop-color="#89CFBD"/>
</linearGradient>
<linearGradient id="paint1_linear" x1="8.0821" y1="15.5084" x2="19.6236" y2="15.5084" gradientUnits="userSpaceOnUse">
<stop stop-color="#55C1AE"/>
<stop offset="1" stop-color="#DEE99B"/>
</linearGradient>
<linearGradient id="paint2_linear" x1="8.0821" y1="15.5084" x2="8.0821" y2="24.8875" gradientUnits="userSpaceOnUse">
<stop stop-color="#EC423D"/>
<stop offset="0.1668" stop-color="#DA4553"/>
<stop offset="0.5748" stop-color="#B1497B"/>
<stop offset="0.8619" stop-color="#964C93"/>
<stop offset="1" stop-color="#8A4B9D"/>
</linearGradient>
<linearGradient id="paint3_linear" x1="17.18" y1="13.0071" x2="17.18" y2="18.0092" gradientUnits="userSpaceOnUse">
<stop stop-color="#F58979"/>
<stop offset="0.1194" stop-color="#F6917A"/>
<stop offset="0.7128" stop-color="#FCB878"/>
<stop offset="1" stop-color="#FEC975"/>
</linearGradient>
</defs>
</svg>
