<svg width="86" height="31" viewBox="0 0 86 31" fill="none" xmlns="http://www.w3.org/2000/svg">
<g filter="url(#filter0_d)">
<path d="M84 25.3509C84 27.3659 82.3775 29 80.3761 29H5.62489C3.62311 29 2 27.366 2 25.3509V5.64862C2 3.63381 3.62311 2 5.62489 2H80.3761C82.3775 2 84 3.63381 84 5.64862V25.3509Z" fill="black"/>
<path d="M23.1208 20.1784C22.6778 21.1213 22.4658 21.5421 21.8956 22.3754C21.0997 23.5389 19.9782 24.9878 18.5887 25C17.3535 25.0109 17.0366 24.2281 15.3606 24.2369C13.6848 24.2456 13.3347 25.0136 12.0995 25.0029C10.7098 24.9905 9.64701 23.6823 8.85128 22.5189C6.62607 19.2657 6.39345 15.4478 7.7657 13.4183C8.74116 11.9757 10.2794 11.1315 11.7263 11.1315C13.1993 11.1315 14.1252 11.9074 15.343 11.9074C16.5243 11.9074 17.2444 11.1303 18.9473 11.1303C20.2344 11.1303 21.5984 11.8033 22.5704 12.9675C19.3863 14.6431 19.9034 19.0108 23.1208 20.1784Z" fill="white"/>
<path d="M17.6556 9.83066C18.2739 9.06808 18.7442 7.99081 18.5736 6.89008C17.563 6.95693 16.3805 7.5744 15.6902 8.37958C15.0637 9.11067 14.5466 10.1947 14.7479 11.248C15.8512 11.2806 16.9927 10.6479 17.6556 9.83066Z" fill="white"/>
<path fill-rule="evenodd" clip-rule="evenodd" d="M27.2204 22.3223L30.3221 12.824H31.8669L34.9818 22.3223H33.5222L32.57 19.4059H29.5669L28.6408 22.3223H27.2204ZM31.421 15.7257C31.2758 15.25 31.1628 14.8097 31.0581 14.3857C30.9469 14.8543 30.8278 15.2983 30.7023 15.7091L29.878 18.244H32.257L31.421 15.7257Z" fill="white"/>
<path fill-rule="evenodd" clip-rule="evenodd" d="M36.7994 16.3823C37.3011 15.664 38.0547 15.2862 38.9955 15.2862C39.7903 15.2862 40.511 15.6318 41.0254 16.2596C41.5508 16.901 41.828 17.7739 41.828 18.7835C41.828 19.926 41.509 20.8824 40.9037 21.5476C40.3618 22.1444 39.6182 22.4734 38.8107 22.4734C38.0353 22.4734 37.3511 22.1627 36.9225 21.6293V25.0458H35.5412V17.7248C35.5412 16.7946 35.5255 16.1468 35.4884 15.5583L35.4808 15.4375H36.7443L36.7994 16.3823ZM40.4338 18.8386C40.4338 17.6626 39.8826 16.4759 38.6513 16.4759C37.876 16.4759 37.1923 17.0495 36.9862 17.8716C36.9821 17.8994 36.9771 17.9277 36.972 17.9563C36.9701 17.967 36.9681 17.9777 36.9663 17.9883L36.9646 17.9979C36.9438 18.118 36.9225 18.2411 36.9225 18.3431V19.4987C36.9225 19.6807 36.9394 19.8421 36.9715 19.9639C37.1578 20.7503 37.8262 21.2974 38.5988 21.2974C39.7307 21.2974 40.4338 20.3552 40.4338 18.8386Z" fill="white"/>
<path fill-rule="evenodd" clip-rule="evenodd" d="M43.9122 16.3823C44.4144 15.664 45.168 15.2862 46.1085 15.2862C46.9035 15.2862 47.6242 15.6318 48.1384 16.2596C48.6637 16.901 48.9413 17.7739 48.9413 18.7835C48.9413 19.926 48.6217 20.8824 48.0176 21.5476C47.4747 22.1444 46.7309 22.4734 45.9234 22.4734C45.1481 22.4734 44.4644 22.1627 44.0358 21.6293V25.0458H42.6545V17.7248C42.6545 16.7946 42.6386 16.1475 42.6011 15.5583L42.5941 15.4375H43.8572L43.9122 16.3823ZM47.5468 18.8386C47.5468 17.6626 46.9956 16.4759 45.7648 16.4759C44.9894 16.4759 44.3051 17.0495 44.1 17.8718C44.0936 17.9097 44.0868 17.9485 44.0799 17.9872C44.0583 18.1103 44.036 18.2379 44.036 18.3431V19.4987C44.036 19.6807 44.0526 19.8421 44.0847 19.9639C44.2706 20.7503 44.9397 21.2974 45.712 21.2974C46.8432 21.2974 47.5468 20.3552 47.5468 18.8386Z" fill="white"/>
<path d="M55.0199 16.8485C53.7307 16.3291 53.3178 15.9206 53.3178 15.166C53.3178 14.5305 53.803 13.8897 54.8878 13.8897C55.7827 13.8897 56.3551 14.2134 56.5093 14.3132L56.6264 14.3884L57.0162 13.1892L56.939 13.1423C56.7076 13.0012 56.0481 12.6729 54.9275 12.6729C53.166 12.6729 51.9356 13.7548 51.9356 15.3033C51.9356 16.5522 52.706 17.4253 54.3602 18.0509C55.5325 18.5067 55.9688 18.9736 55.9688 19.7742C55.9688 20.6803 55.2957 21.2426 54.213 21.2426C53.5078 21.2426 52.7822 21.0286 52.2221 20.6553L52.1022 20.5753L51.7315 21.8023L51.7995 21.8492C52.3211 22.2115 53.3025 22.4736 54.134 22.4736C56.5081 22.4736 57.35 20.9676 57.35 19.678C57.3498 18.348 56.675 17.5281 55.0199 16.8485Z" fill="white"/>
<path d="M59.8364 13.8011L58.4817 14.2436V15.4375H57.4899V16.586H58.4817V20.1042C58.4817 20.9546 58.638 21.5507 58.9599 21.9274C59.2687 22.2795 59.7433 22.4733 60.2964 22.4733C60.8185 22.4733 61.1896 22.3659 61.3641 22.3017L61.4415 22.2732L61.3754 21.1226L61.2428 21.165C61.0681 21.2207 60.889 21.2422 60.6003 21.2422C60.0651 21.2422 59.8364 20.8899 59.8364 20.0628V16.5859H61.5027V15.4373H59.8364V13.8011Z" fill="white"/>
<path fill-rule="evenodd" clip-rule="evenodd" d="M61.6436 18.9348C61.6436 16.7871 62.9933 15.2862 64.9259 15.2862C65.8567 15.2862 66.6557 15.6264 67.2351 16.2693C67.8112 16.9093 68.1153 17.7879 68.1153 18.8111C68.1153 21.3274 66.4142 22.4734 64.833 22.4734H64.8201C62.9496 22.4734 61.6436 21.0184 61.6436 18.9348ZM66.6945 18.8525C66.6945 17.6811 66.1286 16.4207 64.886 16.4207C63.6098 16.4207 63.0382 17.6631 63.0384 18.894C63.0384 20.3105 63.799 21.3386 64.8465 21.3386H64.8598C65.9225 21.3386 66.6945 20.2931 66.6945 18.8525Z" fill="white"/>
<path d="M72.3462 15.353L72.2633 15.3311C72.1417 15.2996 72.0424 15.2862 71.9198 15.2862C71.1971 15.2862 70.5487 15.7289 70.1879 16.4431L70.1473 15.4373H68.9077L68.9157 15.5581C68.9525 16.127 68.9678 16.7656 68.9678 17.6275L68.9549 22.3221H70.3362V18.6597C70.3362 18.4603 70.3492 18.2718 70.3743 18.1025C70.53 17.2228 71.1007 16.6543 71.8276 16.6543C71.9689 16.6543 72.0803 16.6663 72.1982 16.6784L72.3461 16.6943V15.353H72.3462Z" fill="white"/>
<path fill-rule="evenodd" clip-rule="evenodd" d="M72.3285 18.9899C72.3285 16.801 73.6129 15.2725 75.4518 15.2725C77.4745 15.2725 78.1919 17.0233 78.1919 18.5223C78.1919 18.7793 78.1784 18.9761 78.1504 19.1222L78.1325 19.214L73.6739 19.2001C73.7586 21.0777 75.1427 21.2837 75.7429 21.2837C76.5966 21.2837 77.097 21.1211 77.4735 20.9617L77.5888 20.9134L77.8542 21.9842L77.771 22.0232C77.3476 22.2222 76.624 22.4597 75.584 22.4597C73.6062 22.4597 72.3285 21.0974 72.3285 18.9899ZM76.3739 16.7682C76.1218 16.5012 75.7803 16.3658 75.3598 16.3658C74.3266 16.3658 73.8275 17.2764 73.6992 18.1059H76.8497C76.8409 17.8086 76.7713 17.189 76.3739 16.7682Z" fill="white"/>
</g>
<defs>
<filter id="filter0_d" x="0" y="0" width="86" height="31" filterUnits="userSpaceOnUse" color-interpolation-filters="sRGB">
<feFlood flood-opacity="0" result="BackgroundImageFix"/>
<feColorMatrix in="SourceAlpha" type="matrix" values="0 0 0 0 0 0 0 0 0 0 0 0 0 0 0 0 0 0 127 0"/>
<feOffset/>
<feGaussianBlur stdDeviation="1"/>
<feColorMatrix type="matrix" values="0 0 0 0 1 0 0 0 0 1 0 0 0 0 1 0 0 0 0.5 0"/>
<feBlend mode="normal" in2="BackgroundImageFix" result="effect1_dropShadow"/>
<feBlend mode="normal" in="SourceGraphic" in2="effect1_dropShadow" result="shape"/>
</filter>
</defs>
</svg>
