<svg width="91" height="73" viewBox="0 0 91 73" fill="none" xmlns="http://www.w3.org/2000/svg">
<path fill-rule="evenodd" clip-rule="evenodd" d="M45.3278 2L2 19.4355V53.5645L45.3278 71L89 53.5645V19.6208L45.3278 2Z" stroke="white" stroke-width="3"/>
<path fill-rule="evenodd" clip-rule="evenodd" d="M43.3229 14.7858L44 14.8781C43.9557 15.2032 43.8322 15.4568 43.6283 15.6389C43.4247 15.8208 43.1458 15.9353 42.7917 15.982C42.3537 16.0399 41.9706 15.958 41.6432 15.7357C41.3153 15.5136 41.112 15.1774 41.0327 14.7274C40.9491 14.2514 41.0257 13.8629 41.263 13.562C41.5003 13.2611 41.8499 13.0801 42.312 13.0188C42.7153 12.9655 43.0613 13.0255 43.3499 13.1991C43.5216 13.3015 43.6648 13.4623 43.7804 13.6812L43.145 13.9051C43.0797 13.7618 42.9777 13.6556 42.8388 13.586C42.7 13.5166 42.5418 13.4937 42.3651 13.5171C42.1203 13.5494 41.9354 13.6516 41.8098 13.824C41.6844 13.9963 41.6515 14.2529 41.7116 14.5938C41.7751 14.9553 41.8955 15.2028 42.0727 15.3366C42.2496 15.4702 42.4581 15.521 42.6982 15.4893C42.8751 15.466 43.0189 15.397 43.1292 15.2825C43.2398 15.1682 43.3043 15.0025 43.3229 14.7858Z" fill="white"/>
<path fill-rule="evenodd" clip-rule="evenodd" d="M45.8983 14.8099L45.4955 13.699L45.0825 14.8032L45.8983 14.8099ZM47 16L46.3433 15.9947L46.0876 15.3145L44.8926 15.3047L44.6404 15.9805L44 15.9754L45.189 13L45.8273 13.0051L47 16Z" fill="white"/>
<path fill-rule="evenodd" clip-rule="evenodd" d="M48.896 14.2112L49.3909 14.2595C49.7115 14.2906 49.9134 14.2991 49.9965 14.2847C50.0793 14.2703 50.1476 14.2381 50.2007 14.1884C50.2537 14.1386 50.2861 14.0729 50.298 13.9916C50.3112 13.9005 50.2923 13.8239 50.2408 13.762C50.1895 13.7002 50.1106 13.6565 50.0045 13.6313C49.9512 13.6199 49.7889 13.6008 49.5179 13.5744L48.9962 13.5235L48.896 14.2112ZM48 15.7096L48.3944 13L49.8016 13.1372C50.1554 13.1718 50.409 13.2211 50.5622 13.2853C50.7154 13.3497 50.8314 13.4488 50.9096 13.5826C50.9877 13.7165 51.0152 13.8635 50.9921 14.0238C50.9624 14.2271 50.8648 14.3879 50.6997 14.506C50.5343 14.6242 50.3037 14.6865 50.0081 14.6926C50.1424 14.7759 50.2509 14.8631 50.3332 14.9548C50.415 15.0465 50.5206 15.2056 50.6495 15.432L50.9768 16L50.1774 15.9221L49.7798 15.2852C49.6388 15.0577 49.5407 14.9135 49.4853 14.8525C49.4299 14.7915 49.3686 14.7475 49.3008 14.7202C49.233 14.693 49.1222 14.6719 48.9687 14.6568L48.8331 14.6437L48.6685 15.7749L48 15.7096Z" fill="white"/>
<path fill-rule="evenodd" clip-rule="evenodd" d="M35.007 58.6248L35.6975 58.7392C35.6923 58.929 35.7415 59.0813 35.8446 59.1965C35.9477 59.3114 36.1053 59.3949 36.3167 59.447C36.5411 59.502 36.7195 59.5059 36.8523 59.4588C36.9851 59.4116 37.0644 59.3377 37.09 59.2372C37.1065 59.1727 37.0965 59.112 37.0602 59.055C37.0239 58.998 36.9506 58.9379 36.8398 58.8755C36.764 58.833 36.5884 58.7476 36.3129 58.6194C35.9584 58.4546 35.7195 58.3001 35.5959 58.1564C35.4228 57.9543 35.3638 57.7453 35.4188 57.5295C35.4541 57.3905 35.5369 57.2726 35.6675 57.1763C35.7978 57.0795 35.9647 57.0228 36.1683 57.0054C36.3717 56.9882 36.6061 57.0123 36.8708 57.0771C37.3036 57.1837 37.6101 57.3386 37.7907 57.5425C37.9711 57.7463 38.0349 57.9749 37.9821 58.2284L37.2796 58.0815C37.2856 57.9339 37.2473 57.8175 37.165 57.7318C37.0827 57.6466 36.9436 57.5796 36.7477 57.5314C36.5453 57.4818 36.3785 57.4757 36.2474 57.5135C36.1628 57.5376 36.1118 57.585 36.0938 57.6557C36.0773 57.72 36.0975 57.7839 36.1551 57.8467C36.2279 57.9266 36.4255 58.0398 36.7482 58.1864C37.0707 58.3328 37.3046 58.4597 37.4495 58.5673C37.5946 58.6746 37.6979 58.7984 37.7597 58.9381C37.8215 59.0779 37.8305 59.2341 37.7864 59.4067C37.7467 59.5629 37.6543 59.6958 37.51 59.8055C37.3654 59.9148 37.1843 59.9782 36.9666 59.9951C36.7492 60.0123 36.4905 59.9841 36.1911 59.9104C35.7553 59.8036 35.4408 59.6415 35.2479 59.4246C35.0548 59.2078 34.9745 58.9411 35.007 58.6248Z" fill="white"/>
<path fill-rule="evenodd" clip-rule="evenodd" d="M38 60.5021L38.5595 58L41 58.4854L40.9055 58.9085L39.1294 58.5553L39.0054 59.1102L40.6579 59.4386L40.5634 59.8604L38.9111 59.5317L38.7586 60.2127L40.5977 60.5784L40.5032 61L38 60.5021Z" fill="white"/>
<path fill-rule="evenodd" clip-rule="evenodd" d="M42.813 59.2145L43.3113 59.2597C43.6344 59.2891 43.8375 59.2965 43.9198 59.2815C44.0024 59.2664 44.0686 59.2337 44.1189 59.1832C44.1693 59.1328 44.1981 59.0668 44.2054 58.9848C44.2134 58.893 44.1901 58.8162 44.1351 58.7543C44.0802 58.6924 43.9986 58.6491 43.8908 58.6242C43.8368 58.613 43.6729 58.5951 43.3998 58.5704L42.8741 58.5224L42.813 59.2145ZM42 60.7272L42.241 58L43.6592 58.1289C44.016 58.1614 44.2729 58.2094 44.43 58.273C44.5873 58.3366 44.7092 58.4356 44.795 58.5697C44.8814 58.7036 44.9172 58.8514 44.9028 59.0125C44.8847 59.2174 44.796 59.3795 44.637 59.4995C44.4783 59.6193 44.2507 59.6836 43.9547 59.6915C44.0943 59.7742 44.2078 59.8615 44.2953 59.9533C44.3828 60.0451 44.4976 60.2041 44.6396 60.4307L45 61L44.1941 60.9266L43.7597 60.289C43.6052 60.0611 43.4988 59.917 43.4399 59.8558C43.3811 59.7948 43.317 59.7508 43.2474 59.7238C43.1778 59.697 43.0656 59.6764 42.9108 59.6623L42.7743 59.6499L42.6736 60.7884L42 60.7272Z" fill="white"/>
<path fill-rule="evenodd" clip-rule="evenodd" d="M46.3059 61L45 58.1971L45.7054 58.1511L46.6348 60.2276L47.3098 58.0456L48 58L47.0004 60.9542L46.3059 61Z" fill="white"/>
<path fill-rule="evenodd" clip-rule="evenodd" d="M49.3726 61L49 58.1077L49.6276 58L50 60.8923L49.3726 61Z" fill="white"/>
<path fill-rule="evenodd" clip-rule="evenodd" d="M53.3236 59.7145L54 59.7447C53.9627 60.072 53.8441 60.3349 53.6447 60.5342C53.4453 60.7333 53.1698 60.8722 52.8178 60.9508C52.3823 61.0481 51.9994 61.001 51.6682 60.8101C51.3372 60.619 51.1279 60.3035 51.0399 59.8637C50.9472 59.3982 51.0161 59.0056 51.2463 58.6853C51.4768 58.3649 51.8217 58.1534 52.2811 58.0509C52.6821 57.9616 53.0282 57.9898 53.3189 58.1359C53.4921 58.2223 53.6381 58.3687 53.7575 58.576L53.1287 58.8559C53.061 58.7194 52.9572 58.6231 52.8173 58.5665C52.6777 58.5101 52.5198 58.5017 52.3438 58.5408C52.1006 58.5952 51.9182 58.7134 51.7965 58.896C51.675 59.0784 51.6474 59.3363 51.7139 59.6694C51.7847 60.0228 51.9093 60.2581 52.0883 60.3746C52.2674 60.4913 52.4762 60.523 52.7149 60.4696C52.8909 60.4305 53.0327 60.3491 53.1403 60.2254C53.2481 60.1019 53.309 59.9315 53.3236 59.7145Z" fill="white"/>
<path fill-rule="evenodd" clip-rule="evenodd" d="M54.5431 60L54 57.4825L56.3956 57L56.4871 57.4257L54.744 57.7771L54.8646 58.335L56.4862 58.0083L56.5779 58.4324L54.9559 58.7593L55.1038 59.4443L56.9087 59.0806L57 59.5049L54.5431 60Z" fill="white"/>
<path fill-rule="evenodd" clip-rule="evenodd" d="M17 50H10V23H12.199V47.8685H17V50Z" fill="white"/>
<path fill-rule="evenodd" clip-rule="evenodd" d="M25.8972 40.5144L25 27.867L24.1402 40.5144H25.8972ZM29 50H26.5327L26.0467 42.6462H23.9907L23.4673 50H21L23.2056 23H26.7944L29 50Z" fill="white"/>
<mask id="mask0" mask-type="alpha" maskUnits="userSpaceOnUse" x="1" y="1" width="90" height="72">
<path fill-rule="evenodd" clip-rule="evenodd" d="M1 73H91V1H1V73Z" fill="white"/>
</mask>
<g mask="url(#mask0)">
<path fill-rule="evenodd" clip-rule="evenodd" d="M36.3077 35.2566H39.6923V25.096H36.3077V35.2566ZM42 50H39.6923V37.6368L36.3077 37.6013V50H34V23H40.3077L42 25.1315V35.3632L40.7692 36.4645L42 37.3526V50Z" fill="white"/>
<path fill-rule="evenodd" clip-rule="evenodd" d="M55 48.1882L53.3382 50H48.6618L47 48.1882V42.0422H49.3188V47.6551H52.6812V37.6013H48.7391L47 35.4695V25.1315L48.7391 23H53.2995L55 25.1315V30.8867H52.6812V25.096H49.3188V35.5053H53.2995L55 37.6368V48.1882Z" fill="white"/>
<path fill-rule="evenodd" clip-rule="evenodd" d="M61.319 47.6553H64.6812V25.096H61.319V47.6553ZM67 48.1882L65.3382 50H60.6618L59 48.1882V25.1315L60.7391 23H65.2996L67 25.1315V48.1882Z" fill="white"/>
<path fill-rule="evenodd" clip-rule="evenodd" d="M81 50H78.1159L75.0601 29.0751V50H73V23H76.2961L78.9399 41.0475V23H81V50Z" fill="white"/>
<path fill-rule="evenodd" clip-rule="evenodd" d="M84.2178 22.4651H84.369C84.4706 22.4651 84.5441 22.4509 84.5897 22.4227C84.6353 22.3944 84.658 22.3524 84.658 22.2968C84.658 22.2403 84.6335 22.1997 84.5843 22.1751C84.535 22.1505 84.4609 22.1381 84.3618 22.1381H84.2178V22.4651ZM84.2178 22.6005V23H84V22H84.3765C84.5484 22 84.6758 22.0241 84.7583 22.0725C84.8411 22.1208 84.8824 22.1938 84.8824 22.2914C84.8824 22.4159 84.7961 22.5044 84.6235 22.5574L85 23H84.7519L84.4329 22.6005H84.2178Z" fill="white"/>
<path fill-rule="evenodd" clip-rule="evenodd" d="M85.9968 22.4021C86.0506 23.2287 85.4247 23.9429 84.5982 23.9967C83.7717 24.0511 83.0577 23.4251 83.0032 22.5985C82.9494 21.7719 83.5753 21.0577 84.4024 21.0033C85.2283 20.9489 85.9423 21.5755 85.9968 22.4021Z" stroke="white"/>
</g>
</svg>
