<?xml version="1.0" encoding="utf-8"?>
<!-- Generator: Adobe Illustrator 19.0.0, SVG Export Plug-In . SVG Version: 6.00 Build 0)  -->
<svg version="1.1" id="Layer_1" xmlns="http://www.w3.org/2000/svg" xmlns:xlink="http://www.w3.org/1999/xlink" x="0px" y="0px"
	 viewBox="-20 13.343 30.347 30.347" style="enable-background:new -20 13.343 30.347 30.347;" xml:space="preserve">
<style type="text/css">
	.st0{fill:none;stroke:#666665;stroke-width:2;}
	.st1{fill:none;stroke:#FFFFFF;stroke-linecap:square;}
	.st2{fill:#666766;}
</style>
<circle class="st0" cx="-4.827" cy="28.516" r="14.173"/>
<line class="st1" x1="-13.53" y1="21.422" x2="0.989" y2="35.944"/>
<path class="st2" d="M-1.088,18.38c1.422,0,3.011-0.172,3.72,0.541c0.762,0.767,0.473,3.049,0.473,4.531c0,3.539,0,7.079,0,10.618
	c0,1.799,0.246,3.478-0.744,4.328c-0.372,0.32-1.147,0.27-1.826,0.271c-1.352,0-2.705,0-4.058,0c-2.209,0-4.419,0-6.628,0
	c-0.435-0.119-1.014-0.525-1.217-0.879c-0.47-0.821-0.203-3.61-0.203-4.869c0-3.223,0-6.447,0-9.671c0-1.186-0.269-3.162,0.203-3.99
	c0.259-0.455,0.812-0.562,1.217-0.879C-7.13,18.38-4.108,18.38-1.088,18.38z M-9.474,19.801c-0.211,0.237-0.477,0.35-0.609,0.676
	c-0.434,0.653-0.046,2.052,0.338,2.367c0.511,0.419,1.814,0.271,2.705,0.271c1.938,0,3.878,0,5.816,0
	c1.235,0,2.222,0.057,2.773-0.609c0.344-0.436,0.166-1.401,0.135-2.029c-0.228-0.221-0.35-0.478-0.676-0.609
	c-0.528-0.353-2.052-0.135-2.84-0.135c-2.434,0-4.869,0-7.304,0C-9.222,19.793-9.302,19.796-9.474,19.801z M-8.797,21.356
	c-0.077,0.105-0.073,0.057-0.135,0.203c-0.125,0.181-0.045,0.481,0,0.676c0.045,0,0.09,0,0.135,0
	c0.33,0.213,1.349,0.077,1.826,0.068c0.145-0.229,0.207-0.317,0.203-0.744c-0.103-0.069-0.133-0.101-0.203-0.203
	C-7.58,21.356-8.189,21.356-8.797,21.356z M-10.082,25.143c-0.227,0.33-0.228,3.797,0,4.125c0.261,1.087,4.876,1.068,5.207,0.068
	c0.277-0.401,0.2-4.031-0.068-4.328c-0.35-0.873-3.038-0.568-4.261-0.541C-9.56,24.712-9.905,24.715-10.082,25.143z M-3.522,24.873
	c-0.301,1.178-0.203,3.084-0.135,4.463c0.135,0.158,0.271,0.316,0.406,0.473c0.648,0.362,1.961,0.203,2.908,0.203
	c0.338,0,0.676,0,1.014,0c0.314-0.141,0.671-0.284,0.879-0.541c0.45-0.579,0.186-3.42,0.135-4.328
	c-0.173-0.146-0.509-0.404-0.609-0.609c-1.154-0.051-2.527-0.072-3.787-0.068C-2.934,24.631-3.285,24.761-3.522,24.873z
	 M-6.769,27.916c0.316,0,0.631,0,0.947,0c0.098-0.144,0.192-0.169,0.271-0.338c0.136-0.196,0.048-0.603,0-0.812
	c-0.129-0.065-0.186-0.094-0.271-0.203c-0.316,0-0.631,0-0.947,0c0.006-0.383-0.009-0.794-0.068-1.082
	c-0.304-0.153-0.381-0.269-0.879-0.271c-0.328,0.408-0.492,0.455-0.473,1.285c0.023,0,0.045,0,0.068,0c0,0.023,0,0.045,0,0.068
	c-0.495-0.01-0.885,0.048-1.217,0.135c-0.059,0.279-0.135,0.464-0.135,0.879c0.181,0.081,0.233,0.277,0.406,0.338
	c0.301,0.107,0.721-0.075,0.947,0.068c-0.111,0.167-0.076,0.602-0.068,0.879c0.159,0.07,0.297,0.217,0.406,0.338
	c0.405,0.007,0.607-0.063,0.879-0.135c0.057-0.162,0.027-0.111,0.135-0.203C-6.769,28.547-6.769,28.232-6.769,27.916z
	 M-2.643,26.563c-0.088,0.12-0.227,0.241-0.338,0.338c-0.005,0.31,0.022,0.588,0.068,0.812c0.861,0.287,2.343,0.208,3.517,0.203
	c0.293-0.3,0.421-0.366,0.406-1.014c-0.167-0.082-0.104-0.12-0.271-0.203C0.403,26.408-1.952,26.554-2.643,26.563z M-10.082,32.041
	c-0.382,0.564-0.111,3.383-0.068,4.193c0.206,0.17,0.512,0.4,0.676,0.609c1.29,0.075,4.242,0.481,4.599-0.609
	c0.382-0.564,0.111-3.383,0.068-4.193c-0.211-0.206-0.384-0.487-0.676-0.609c-0.686-0.286-2.755-0.082-3.652-0.068
	C-9.523,31.625-9.89,31.581-10.082,32.041z M-3.59,32.041c-0.382,0.564-0.111,3.383-0.068,4.193
	c0.821,0.793,1.453,0.676,3.043,0.676c0.368,0,1.042,0.09,1.285-0.068c0.473-0.016,0.806-0.27,0.947-0.609
	C2,35.67,1.729,32.851,1.685,32.041c-0.201-0.172-0.513-0.402-0.676-0.609c-1.111-0.05-2.436-0.072-3.652-0.068
	C-3.038,31.627-3.425,31.538-3.59,32.041z M-9.136,32.177c-0.128,0.137-0.194,0.126-0.271,0.338
	C-9.49,32.639-9.48,32.9-9.474,33.123c0.299,0.118,0.89,0.782,1.014,1.082c-0.501,0.218-1.031,0.837-1.014,1.623
	c0.18,0.078,0.142,0.13,0.338,0.203c0.124,0.084,0.386,0.074,0.609,0.068c0.346-0.333,0.781-0.568,1.014-1.014
	c0.023,0,0.045,0,0.068,0c0,0.023,0,0.045,0,0.068c0.34,0.3,0.691,0.626,1.014,0.947c0.405,0.007,0.607-0.063,0.879-0.135
	c0.023-0.27,0.045-0.541,0.068-0.812c-0.353-0.247-0.623-0.658-0.947-0.947c0.043-0.119,0.013-0.066,0.068-0.135
	c0.124-0.32,0.62-0.736,0.879-0.947c0.02-0.372,0.032-0.682-0.203-0.812c-0.268-0.251-0.707-0.081-1.014,0
	c-0.193,0.361-0.549,0.522-0.744,0.879c-0.023,0-0.045,0-0.068,0c0-0.023,0-0.045,0-0.068c-0.336-0.306-0.689-0.626-1.014-0.947
	C-8.73,32.177-8.933,32.177-9.136,32.177z M-2.643,32.582c-0.09,0.134-0.215,0.239-0.338,0.338c-0.005,0.31,0.022,0.588,0.068,0.812
	c0.774,0.379,2.408,0.21,3.517,0.203c0.293-0.3,0.421-0.366,0.406-1.014c-0.159-0.07-0.297-0.217-0.406-0.338
	C-0.479,32.582-1.561,32.582-2.643,32.582z M-2.643,34.746c-0.088,0.12-0.227,0.241-0.338,0.338
	c-0.005,0.31,0.022,0.588,0.068,0.812c0.774,0.379,2.408,0.21,3.517,0.203c0.092-0.085,0.12-0.092,0.271-0.135
	c0.059-0.279,0.135-0.464,0.135-0.879c-0.159-0.07-0.297-0.217-0.406-0.338C-0.479,34.746-1.561,34.746-2.643,34.746z"/>
</svg>
